<?xml version="1.0" encoding="UTF-8" standalone="no"?>
<svg width="496px" height="257px" viewBox="0 0 496 257" version="1.1" xmlns="http://www.w3.org/2000/svg" xmlns:xlink="http://www.w3.org/1999/xlink">
    <!-- Generator: Sketch Beta 47 (45292) - http://www.bohemiancoding.com/sketch -->
    <title>Group Copy</title>
    <desc>Created with Sketch Beta.</desc>
    <defs>
        <linearGradient x1="50%" y1="143.134219%" x2="50%" y2="0%" id="linearGradient-1">
            <stop stop-color="#FFFFFF" offset="0%"></stop>
            <stop stop-color="#00A1DF" offset="100%"></stop>
        </linearGradient>
        <rect id="path-2" x="0" y="0" width="1280" height="740"></rect>
        <rect id="path-3" x="0" y="0" width="1280" height="282"></rect>
    </defs>
    <g id="Text-Styles" stroke="none" stroke-width="1" fill="none" fill-rule="evenodd">
        <g id="Luggage-landing" transform="translate(-662.000000, -6852.000000)">
            <g id="Group-27" transform="translate(-2.000000, 7108.000000)">
                <g id="Mask-Copy">
                    <use fill="#1F1A41" xlink:href="#path-2"></use>
                    <use fill-opacity="0.1" fill="url(#linearGradient-1)" xlink:href="#path-2"></use>
                </g>
            </g>
            <g id="Group" transform="translate(-2.000000, 6827.000000)">
                <mask id="mask-4" fill="white">
                    <use xlink:href="#path-3"></use>
                </mask>
                <use id="Mask" xlink:href="#path-3"></use>
                <g id="Group-Copy" mask="url(#mask-4)">
                    <g transform="translate(912.000000, 262.500000) scale(-1, 1) translate(-912.000000, -262.500000) translate(664.000000, 25.000000)">
                        <path d="M301.190845,62 C301.190845,62 445.080769,63.9750704 452,66.887774 C452,66.887774 441.047409,203.566849 440.060832,206.153876 C439.074255,208.740903 308.99905,204.570143 308.99905,204.570143 C308.99905,204.570143 299.552704,67.625799 301.190845,62" id="Fill-124" fill="#907156"></path>
                        <path d="M449.94972,67 C449.94972,67 474.473426,83.2757662 477,86.4336726 L464.176396,208 L436,206.070749 L449.808629,68.7514878" id="Fill-125" fill="#C7A682"></path>
                        <path d="M363,64 C363,64 363.390273,107.103236 363.355909,108.000176 C363.321545,108.899754 385.837091,109 385.837091,109 L390,64.5671826 L363,64" id="Fill-126" fill="#BCA27C"></path>
                        <path d="M32,23.817015 C32,23.817015 46.313499,208.865654 50.0333323,214 C50.0333323,214 265.97227,207.464187 267.61214,207.107926 C269.25201,206.751666 271.910905,2.34968588 271.999971,0.167588849 C272.089038,-2.01450818 66.3351083,17.7239085 32,23.817015" id="Fill-127" fill="#A18565"></path>
                        <path d="M191.618508,24.8943968 C192.726346,41.3111245 194.540132,65.0434127 195.566006,71.7207029 C201.930123,71.3098325 221.826251,69.8265645 236.696128,68.702485 C236.608876,49.2081054 236.17526,28.2304578 235.487819,22.1966062 C227.701228,22.447263 200.259112,24.300056 191.618508,24.8943968 Z M193.598867,77 L193.450803,76.9974159 C190.463078,76.8785477 189.751841,76.8475387 186.169216,22.6643266 L186,20.1009087 L188.620208,19.9200224 C190.336166,19.7985701 230.723324,17 236.860057,17 C237.510482,17 237.854202,17.028425 238.182059,17.1059477 C240.609254,17.684784 241.830784,17.9716181 241.992068,71.0850166 L242,73.4830527 L239.551653,73.6691072 C235.062134,74.0102072 195.616242,77 193.598867,77 L193.598867,77 Z" id="Fill-128" fill="#755846"></path>
                        <path d="M340.294157,208.947619 C340.294157,208.947619 359.819553,27.3354355 360,22.9560078 C360,22.9560078 284.931512,-0.476296004 270.657646,0.00738628347 C270.657646,0.00738628347 264.827625,196.879221 266.212819,207.670067 C266.212819,207.670067 333.084249,209.310381 340.294157,208.947619" id="Fill-129" fill="#C7A682"></path>
                        <path d="M313.98261,8 C313.98261,8 309.850413,68.730021 311.313565,70.0769444 L328.129085,73 L335,13.7946036 C335,13.7946036 317.592252,8.95546575 313.98261,8" id="Fill-130" fill="#E7C69E"></path>
                        <path d="M339.997434,92.6161992 C340.182908,87.5686098 330.301277,84.5845004 314.229458,83.4791678 C306.619881,82.9568043 301.908332,82.7345834 299,83.4762818 C301.604361,83.4820538 304.873336,83.6754148 309.000128,83.9611274 C325.074523,85.06646 334.953578,88.0505695 334.768104,93.0952728 C334.639303,96.5873158 332.052974,98.2727316 328.495484,99 C334.492469,98.9624822 339.809384,97.6695605 339.997434,92.6161992" id="Fill-131" fill="#A18565"></path>
                        <path d="M334.997378,92.6743891 C335.186836,88.1250845 325.095604,85.4340199 308.675972,84.4372329 C304.460547,84.1795778 301.121362,84.0052052 298.461066,84 C295.161351,84.744337 294.14565,86.5687435 294.000926,90.3476853 C293.871989,93.6685736 307.244517,96.4247026 315.11752,97.0727443 C318.575115,97.3564252 323.795716,98.0252875 328.590038,97.9992617 C332.223934,97.3434123 334.865811,95.8235073 334.997378,92.6743891" id="Fill-132" fill="#362722"></path>
                        <path d="M286.402086,204.018653 C286.402086,204.018653 489.687765,203.487742 496,208.090716 C496,208.090716 465.878502,456.107303 464.062013,468.689636 C464.062013,468.689636 289.873945,477.5059 277,474.296895 C277,474.296895 281.568509,217.207742 286.402086,204.018653" id="Fill-133" fill="#A18565"></path>
                        <path d="M0,212.923099 C0,212.923099 262.373001,204.018355 285,204 C285,204 279.103919,451.565516 275.510666,474.981111 C275.510666,474.981111 58.3601903,475.398029 35.7384366,472.314408 C35.7384366,472.314408 2.85361948,234.036467 0,212.923099" id="Fill-134" fill="#7C5F4D"></path>
                        <polyline id="Fill-135" fill="#BCA27C" points="153.667001 207 156 300.303054 111.352326 302 100 208.728566 153.667001 207"></polyline>
                        <polyline id="Fill-136" fill="#7C5F4D" points="404.122872 218 475 220.916796 469.335505 272 402 269.227211 404.122872 218"></polyline>
                    </g>
                </g>
            </g>
        </g>
    </g>
</svg>