<?xml version="1.0" encoding="UTF-8" standalone="no"?>
<svg width="214px" height="215px" viewBox="0 0 214 215" version="1.1" xmlns="http://www.w3.org/2000/svg" xmlns:xlink="http://www.w3.org/1999/xlink">
    <!-- Generator: Sketch Beta 47 (45292) - http://www.bohemiancoding.com/sketch -->
    <title>bridge</title>
    <desc>Created with Sketch Beta.</desc>
    <defs></defs>
    <g id="Text-Styles" stroke="none" stroke-width="1" fill="none" fill-rule="evenodd">
        <g id="Luggage-landing" transform="translate(-531.000000, -1049.000000)" fill-rule="nonzero">
            <g id="Group-8" transform="translate(326.000000, 838.000000)">
                <g id="Group-7" transform="translate(0.000000, 85.000000)">
                    <g id="Group-2" transform="translate(0.000000, 118.000000)">
                        <g id="bridge" transform="translate(205.000000, 8.600000)">
                            <g id="Bridge">
                                <path d="M213.90054,106.95048 C213.90054,47.84976 166.05078,0 106.95048,0 C47.85018,0 0,47.84976 0,106.95048 C0,129.16638 6.69312,149.8161 18.3708,166.90548 L195.52974,166.90548 C207.06504,149.8161 213.90054,129.16638 213.90054,106.95048 Z" id="Shape" fill="#59B6F8"></path>
                                <g id="Group" transform="translate(0.000000, 44.940000)" fill="#F1F3F7">
                                    <path d="M155.65494,0.3465 C155.65494,27.2622 133.86618,49.05096 106.95048,49.05096 C80.03478,49.05096 58.24602,27.2622 58.24602,0.3465 L55.398,0.3465 C55.398,12.16656 59.38548,23.13234 66.2214,31.96158 L66.2214,62.15244 L69.06942,62.15244 L69.06942,35.23674 C71.91744,38.36994 75.19302,41.07558 78.75336,43.49646 L78.75336,62.00964 L81.60138,62.00964 L81.60138,45.20502 C84.30702,46.77162 87.15546,48.05304 90.14586,49.05012 L90.14586,62.00964 L92.99388,62.00964 L92.99388,49.90482 C95.55714,50.61672 98.12082,51.18666 100.82646,51.47142 L100.82646,62.00964 L103.67448,62.00964 L103.67448,51.7566 C104.67156,51.7566 105.8106,51.89898 106.80768,51.89898 C107.94714,51.89898 108.9438,51.89898 109.94088,51.7566 L109.94088,62.01006 L112.7889,62.01006 L112.7889,51.47184 C115.49454,51.18708 118.05822,50.61756 120.62148,49.90524 L120.62148,62.01006 L123.4695,62.01006 L123.4695,49.05054 C126.46032,48.05346 129.30834,46.77204 132.01398,45.20544 L132.01398,62.01006 L134.862,62.01006 L134.862,43.49688 C138.42234,41.21838 141.69792,38.36994 144.54594,35.23716 L144.54594,62.01048 L147.39396,62.01048 L147.39396,31.962 C154.22946,23.27514 158.21736,12.30936 158.21736,0.34692 L155.65494,0.34692 L155.65494,0.3465 Z" id="Shape"></path>
                                    <path d="M48.70446,0.3465 C48.70446,27.2622 26.9157,49.05096 0,49.05096 L0,51.89898 C1.13946,51.89898 2.13612,51.89898 3.1332,51.7566 L3.1332,62.01006 L5.98122,62.01006 L5.98122,51.47184 C8.68686,51.18708 11.25054,50.61756 13.8138,49.90524 L13.8138,62.01006 L16.66182,62.01006 L16.66182,49.05054 C19.65264,48.05346 22.50066,46.77204 25.2063,45.20544 L25.2063,62.01006 L28.05432,62.01006 L28.05432,43.49688 C31.61466,41.21838 34.88982,38.36994 37.73826,35.23716 L37.73826,62.01048 L40.58628,62.01048 L40.58628,31.962 C47.42178,23.27514 51.40968,12.30936 51.40968,0.34692 L48.70446,0.34692 L48.70446,0.3465 Z" id="Shape"></path>
                                    <path d="M213.90054,49.05096 C186.98484,49.05096 165.19608,27.2622 165.19608,0.3465 L162.34806,0.3465 C162.34806,12.16656 166.33554,23.13234 173.17146,31.96158 L173.17146,62.15244 L176.01948,62.15244 L176.01948,35.23674 C178.8675,38.36994 182.14308,41.07558 185.70342,43.49646 L185.70342,62.00964 L188.55144,62.00964 L188.55144,45.20502 C191.25708,46.77162 194.10552,48.05304 197.09592,49.05012 L197.09592,62.00964 L199.94394,62.00964 L199.94394,49.90482 C202.5072,50.61672 205.07088,51.18666 207.77652,51.47142 L207.77652,62.00964 L210.62454,62.00964 L210.62454,51.7566 C211.62162,51.7566 212.76066,51.89898 213.75774,51.89898 L213.75774,49.05096 L213.90054,49.05096 Z" id="Shape"></path>
                                </g>
                                <g id="Group" transform="translate(0.000000, 106.680000)" fill="#D54232">
                                    <rect id="Rectangle-path" x="163.77228" y="0.41286" width="50.12868" height="8.25972"></rect>
                                    <rect id="Rectangle-path" x="56.8218" y="0.41286" width="100.25694" height="8.25972"></rect>
                                    <rect id="Rectangle-path" x="0" y="0.41286" width="50.12868" height="8.25972"></rect>
                                </g>
                                <path d="M18.3708,166.90506 C37.5963,195.24456 70.06566,213.90054 106.95006,213.90054 C143.83446,213.90054 176.30382,195.24456 195.52932,166.90506 L18.3708,166.90506 L18.3708,166.90506 Z" id="Shape" fill="#1170B4"></path>
                                <g id="Group" transform="translate(48.300000, 36.960000)" fill="#F0582F">
                                    <rect id="Rectangle-path" x="0.40446" y="0.06678" width="9.39918" height="118.77054"></rect>
                                    <rect id="Rectangle-path" x="107.35494" y="0.06678" width="9.39918" height="118.77054"></rect>
                                </g>
                                <g id="Group" transform="translate(44.520000, 154.140000)" fill="#F6CEB0">
                                    <rect id="Rectangle-path" x="0.33936" y="0.2331" width="17.08938" height="12.53196"></rect>
                                    <rect id="Rectangle-path" x="107.28984" y="0.2331" width="17.08938" height="12.53196"></rect>
                                </g>
                            </g>
                        </g>
                    </g>
                </g>
            </g>
        </g>
    </g>
</svg>