<?xml version="1.0" encoding="UTF-8" standalone="no"?>
<svg width="536px" height="282px" viewBox="0 0 536 282" version="1.1" xmlns="http://www.w3.org/2000/svg" xmlns:xlink="http://www.w3.org/1999/xlink">
    <!-- Generator: Sketch Beta 47 (45292) - http://www.bohemiancoding.com/sketch -->
    <title>Group</title>
    <desc>Created with Sketch Beta.</desc>
    <defs>
        <rect id="path-1" x="0" y="0" width="1280" height="282"></rect>
    </defs>
    <g id="Text-Styles" stroke="none" stroke-width="1" fill="none" fill-rule="evenodd">
        <g id="Luggage-landing" transform="translate(-136.000000, -5626.000000)">
            <g id="Group" transform="translate(0.000000, 5626.000000)">
                <mask id="mask-2" fill="white">
                    <use xlink:href="#path-1"></use>
                </mask>
                <use id="Mask" fill="#2D2372" xlink:href="#path-1"></use>
                <g id="Group-29" mask="url(#mask-2)">
                    <g transform="translate(43.000000, -229.000000)" id="Group">
                        <g transform="translate(348.797923, 365.144472) scale(1, -1) rotate(30.000000) translate(-348.797923, -365.144472) translate(110.297923, 82.144472)">
                            <polyline id="Fill-180" fill="#3E414E" points="411.113027 131 437 153.512575 403.886973 194 378 171.487425 411.113027 131"></polyline>
                            <path d="M410.251999,100.87671 C418.185866,91.5158346 432.24535,90.3304723 441.654551,98.2235902 L465.081184,117.879685 C474.490386,125.772803 475.685372,139.763563 467.748001,149.124438 C459.814134,158.481827 445.751146,159.670676 436.345449,151.777558 L412.918816,132.121463 C403.509614,124.224859 402.314628,110.237585 410.251999,100.87671" id="Fill-181" fill="#F7A800"></path>
                            <polygon id="Fill-182" fill="#3E414E" points="217 133 268 133 268 60 217 60"></polygon>
                            <path d="M242.498234,513.187015 C142.282537,513.187015 61.0426967,432.290097 61.0426967,332.501758 C61.0426967,232.71342 142.282537,151.816502 242.498234,151.816502 C342.717463,151.816502 423.957303,232.71342 423.957303,332.501758 C423.957303,432.290097 342.717463,513.187015 242.498234,513.187015 Z M242.498234,99 C112.990565,99 8,203.542844 8,332.501758 C8,461.460673 112.990565,566 242.498234,566 C372.012967,566 477,461.460673 477,332.501758 C477,203.542844 372.012967,99 242.498234,99 L242.498234,99 Z" id="Fill-183" fill="#129BD7"></path>
                            <path d="M241.998239,150 C142.035102,150 61,231.037836 61,331 C61,430.962164 142.035102,512 241.998239,512 C341.964898,512 423,430.962164 423,331 C423,231.037836 341.964898,150 241.998239,150" id="Fill-184" fill="#FFFFFE"></path>
                            <polygon id="Fill-185" fill="#3E414E" opacity="0.166511194" points="237 206 248 206 248 169 237 169"></polygon>
                            <polyline id="Fill-187" fill="#F7A800" points="178.447447 224.5 159.598076 192.652294 168.752265 187.5 187.598076 219.344234 178.447447 224.5"></polyline>
                            <polyline id="Fill-189" fill="#3E414E" opacity="0.166511194" points="131.844234 274 100 255.153025 105.152294 246 137 264.846975 131.844234 274"></polyline>
                            <polygon id="Fill-191" fill="#3E414E" opacity="0.166511194" points="81 335 118 335 118 326 81 326"></polygon>
                            <polygon id="Fill-192" fill="#3E414E" opacity="0.166511194" points="368 335 405 335 405 326 368 326"></polygon>
                            <polyline id="Fill-193" fill="#3E414E" opacity="0.166511194" points="105.152294 418 100 408.849371 131.844234 390 137 399.154188 105.152294 418"></polyline>
                            <polyline id="Fill-194" fill="#3E414E" opacity="0.166511194" points="353.155282 274 348 264.846975 379.844718 246 385 255.153025 353.155282 274"></polyline>
                            <polyline id="Fill-195" fill="#3E414E" opacity="0.166511194" points="166.154188 474 157 468.844718 175.849371 437 185 442.155282 166.154188 474"></polyline>
                            <polyline id="Fill-196" fill="#3E414E" opacity="0.166511194" points="309.153025 226 300 220.844234 318.850534 189 328 194.152294 309.153025 226"></polyline>
                            <path d="M268,332.501754 C268,318.97193 257.031579,308 243.498246,308 C229.968421,308 219,318.97193 219,332.501754 C219,346.031579 229.968421,357 243.498246,357 C257.031579,357 268,346.031579 268,332.501754" id="Fill-197" fill="#F7A800"></path>
                            <polyline id="Fill-199" fill="#F7A800" transform="translate(225.500000, 288.500000) rotate(-3.000000) translate(-225.500000, -288.500000) " points="250 311.445834 201 245 219.011376 324.222652 241.80256 332 250 311.445834"></polyline>
                            <path d="M255,332.5 C255,326.147031 249.852156,321 243.498184,321 C237.147844,321 232,326.147031 232,332.5 C232,338.849337 237.147844,344 243.498184,344 C249.852156,344 255,338.849337 255,332.5" id="Fill-200" fill="#FFFFFE"></path>
                        </g>
                    </g>
                </g>
            </g>
        </g>
    </g>
</svg>