<?xml version="1.0" encoding="UTF-8" standalone="no"?>
<svg width="190px" height="190px" viewBox="0 0 190 190" version="1.1" xmlns="http://www.w3.org/2000/svg" xmlns:xlink="http://www.w3.org/1999/xlink">
    <!-- Generator: Sketch Beta 47 (45292) - http://www.bohemiancoding.com/sketch -->
    <title>delivery-truck</title>
    <desc>Created with Sketch Beta.</desc>
    <defs></defs>
    <g id="Text-Styles" stroke="none" stroke-width="1" fill="none" fill-rule="evenodd">
        <g id="Luggage-landing" transform="translate(-758.000000, -1063.000000)" fill-rule="nonzero">
            <g id="Group-8" transform="translate(326.000000, 838.000000)">
                <g id="Group-7" transform="translate(0.000000, 85.000000)">
                    <g id="Group-2" transform="translate(0.000000, 118.000000)">
                        <g id="Group-4" transform="translate(410.000000, 0.000000)">
                            <g id="delivery-truck" transform="translate(22.000000, 22.000000)">
                                <path d="M189.61264,94.7078311 C189.61264,42.3727576 147.196107,0 94.8061339,0 C42.4161607,0 0,42.3727576 0,94.7078311 C0,111.354338 4.29198962,126.991819 11.8666365,140.611621 L177.620163,140.611621 C185.320651,126.991819 189.61264,111.354338 189.61264,94.7078311 Z" id="Shape" fill="#EE4A68"></path>
                                <path d="M12.0727149,140.611621 C28.2157213,169.809238 59.2408232,189.61264 94.8063201,189.61264 C130.371817,189.61264 161.396547,169.809238 177.539925,140.611621 L12.0727149,140.611621 Z" id="Shape" fill="#646B79"></path>
                                <polygon id="Shape" fill="#F1F3F7" points="18.4641522 115.672004 123.585831 115.672004 123.585831 56.8127761 149.802937 56.8127761 172.220529 93.9473435 172.220529 115.672004 177.539925 115.672004 177.539925 126.408427 18.4641522 126.408427"></polygon>
                                <polygon id="Shape" fill="#3EB9E3" points="155.524975 86.6394835 131.379545 86.6394835 131.379545 68.885491 146.549152 68.885491"></polygon>
                                <path d="M139.7261,98.0020387 L132.975226,98.0020387 C132.115846,98.0020387 131.379545,97.3466554 131.379545,96.5817193 C131.379545,95.8167832 132.115846,95.1613999 132.975226,95.1613999 L139.7261,95.1613999 C140.585479,95.1613999 141.32178,95.8167832 141.32178,96.5817193 C141.32178,97.3466554 140.585117,98.0020387 139.7261,98.0020387 Z" id="Shape" fill="#4F5565"></path>
                                <rect id="Rectangle-path" fill="#FBD303" x="18.4641522" y="49.0010194" width="96.5817193" height="61.0737343"></rect>
                                <g id="Group" transform="translate(31.957187, 115.756031)" fill="#414753">
                                    <ellipse id="Oval" cx="12.6766612" cy="12.6580536" rx="12.5100739" ry="12.6204569"></ellipse>
                                    <ellipse id="Oval" cx="115.285131" cy="12.6580536" rx="12.5100739" ry="12.6204569"></ellipse>
                                </g>
                                <g id="Group" transform="translate(38.348624, 122.147469)" fill="#F1F3F7">
                                    <ellipse id="Oval" cx="109.515695" cy="6.45651376" rx="6.09723354" ry="6.30466871"></ellipse>
                                    <ellipse id="Oval" cx="6.37407402" cy="6.45651376" rx="6.09723354" ry="6.30466871"></ellipse>
                                </g>
                                <g id="Group" transform="translate(28.406388, 56.102616)" fill="#E6BD20">
                                    <rect id="Rectangle-path" x="0.361311154" y="0.142111478" width="7.07275896" height="46.6605602"></rect>
                                    <rect id="Rectangle-path" x="17.4114728" y="0.142111478" width="7.07275896" height="46.6605602"></rect>
                                    <rect id="Rectangle-path" x="34.5882795" y="0.142111478" width="7.07275896" height="46.6605602"></rect>
                                    <rect id="Rectangle-path" x="51.6388136" y="0.142111478" width="7.07275896" height="46.6605602"></rect>
                                    <rect id="Rectangle-path" x="68.6893477" y="0.142111478" width="7.07275896" height="46.6605602"></rect>
                                </g>
                            </g>
                        </g>
                    </g>
                </g>
            </g>
        </g>
    </g>
</svg>