<?xml version="1.0" encoding="UTF-8" standalone="no"?>
<svg width="644px" height="609px" viewBox="0 0 644 609" version="1.1" xmlns="http://www.w3.org/2000/svg" xmlns:xlink="http://www.w3.org/1999/xlink">
    <!-- Generator: Sketch Beta 47 (45292) - http://www.bohemiancoding.com/sketch -->
    <title>Moving Van Free Vector</title>
    <desc>Created with Sketch Beta.</desc>
    <defs></defs>
    <g id="Text-Styles" stroke="none" stroke-width="1" fill="none" fill-rule="evenodd">
        <g id="Luggage-landing" transform="translate(-636.000000, -3853.000000)">
            <g id="Group-32" transform="translate(100.000000, 3322.000000)">
                <g id="Moving-Van-Free-Vector" transform="translate(942.500000, 835.500000) scale(-1, 1) translate(-942.500000, -835.500000) translate(536.000000, 531.000000)">
                    <rect id="XMLID_105_" fill="#FFB311" x="0" y="0" width="813" height="554"></rect>
                    <path d="M813,262.224397 L813,553 L0,553 L0,373.564115 C13.4145,354.80039 34.959,342.933266 57.0261429,342.125556 C74.0410714,341.504241 92.6239286,348.525105 100.870071,364.49291 C109.522714,381.144163 104.644714,401.833965 99.5925,420.100638 C104.296286,416.062088 109.696929,411.837143 115.736357,412.272064 C121.775786,412.706985 127.176429,420.721953 123.401786,425.816739 C134.435357,414.695194 152.785929,413.079774 165.329357,422.150979 C185.538214,398.540994 210.9735,380.025795 238.905857,368.593592 C233.911714,368.034408 230.253214,362.566833 230.020929,357.161389 C229.788643,351.755945 232.227643,346.599027 235.247357,342.249819 C244.654929,328.705144 260.5665,320.628044 276.361929,321.497885 C263.644286,320.814438 253.307571,279.124175 251.913857,269.742313 C248.719929,247.872011 252.204214,224.883342 260.914929,204.876986 C274.910143,172.75498 300.868071,147.964496 329.845714,130.816191 C345.583071,121.496461 362.772214,114.040676 380.774357,113.108703 C394.7115,112.363124 408.648643,115.531833 421.888929,120.191698 C438.323143,125.969931 454.699286,134.79261 464.687571,149.952706 C476.185714,167.349536 477.231,190.959521 470.959286,211.214403 C465.965143,227.306472 456.906,241.472463 446.220857,254.023034 C443.201143,257.005347 440.413714,260.298319 437.626286,263.467028 C440.587929,260.422582 443.433429,257.253874 446.220857,254.023034 C449.705143,250.543667 453.421714,247.43709 457.660929,245.138224 C465.500571,240.789016 475.546929,239.73278 482.980071,244.889697 C498.252857,255.514191 486.638571,267.319183 479.844214,276.825308 C489.542143,274.588573 500.169214,272.351838 509.751,276.328256 C519.332786,280.304675 526.243286,293.290166 520.842643,302.609897 C534.373286,287.201276 555.511286,277.570887 575.313643,277.135966 C585.476143,276.949572 596.451643,279.434833 603.071786,287.698328 C613.524643,300.808083 608.182071,320.628044 602.374929,336.657981 C606.207643,333.116483 610.214571,329.512854 615.0345,327.897434 C619.854429,326.282014 625.835786,327.213987 628.913571,331.501063 C631.584857,335.228955 630.597643,341.442109 627.113357,343.740976 C626.474571,343.989502 625.893857,344.238028 625.255071,344.486555 C625.951929,344.362292 626.590714,344.113765 627.113357,343.740976 C641.921571,337.776348 657.717,334.731903 673.512429,334.60764 C675.312643,334.60764 677.519357,335.477481 678.564643,336.720112 C678.622714,337.652085 678.738857,338.584058 678.796929,339.516031 C679.493786,338.521927 679.2615,337.589954 678.564643,336.720112 C677.054786,317.27294 681.410143,296.893796 693.198643,281.982226 C705.509786,266.38721 726.531643,258.185847 744.591857,264.833921 C749.527929,266.635736 754.347857,269.680181 756.903,274.588573 C759.225857,279.062044 759.109714,285.213066 755.857714,288.878827 C755.567357,289.189485 755.218929,289.500142 754.8705,289.8108 C755.218929,289.500142 755.509286,289.189485 755.857714,288.878827 C764.510357,280.428938 773.453357,271.979048 784.022357,266.573605 C792.791143,262.038002 803.360143,259.863398 813,262.224397 Z" id="XMLID_99_" fill="#FF9000"></path>
                    <path d="M736.829,122 L580,122 C580,122 585.466046,110.038313 603.783115,106.029875 C613.37777,103.930218 613.784816,113.983125 613.784816,113.983125 C613.784816,113.983125 624.135414,80.3885996 650.244506,80.0068436 C676.353598,79.5614616 678.272529,101.003422 678.272529,101.003422 C678.272529,101.003422 692.460989,90.5051327 708.56838,95.9769682 C724.675771,101.448804 712.406242,113.601369 712.406242,113.601369 C712.406242,113.601369 744.446575,108.956671 736.829,122 Z" id="XMLID_74_" fill="#840508"></path>
                    <g id="XMLID_70_" transform="translate(114.000000, 470.000000)" fill="#520000">
                        <rect id="XMLID_71_" x="301.145302" y="0.43037037" width="22.0576744" height="82.5696296"></rect>
                        <rect id="XMLID_72_" x="601.826233" y="0.43037037" width="22.0576744" height="82.5696296"></rect>
                    </g>
                    <g id="XMLID_66_" transform="translate(0.000000, 484.000000)">
                        <rect id="XMLID_64_" fill="#1F1A41" x="0" y="0.184615385" width="813" height="31.6307692"></rect>
                        <rect id="XMLID_65_" fill="#1D2C32" x="0" y="9.6" width="813" height="12.8615385"></rect>
                    </g>
                    <g id="XMLID_62_" transform="translate(155.000000, 295.000000)">
                        <g id="XMLID_61_">
                            <rect id="XMLID_2_" fill="#834A00" x="429.353546" y="171.905729" width="94.3602261" height="52.4057292"></rect>
                            <g id="XMLID_6_">
                                <rect id="XMLID_51_" fill="#333334" x="7.60688592" y="213.60625" width="336.445015" height="8.34010417"></rect>
                                <g id="XMLID_1_">
                                    <polygon id="XMLID_55_" fill="#FFFFFE" points="345.619733 0 7.60688592 0 7.60688592 185.349479 345.619733 185.349479 345.619733 50.4763021 413.44296 39.3976562 413.44296 0"></polygon>
                                    <path d="M344.748715,64.0445313 L405.894142,64.0445313 C414.488181,64.0445313 420.178828,66.9697917 425.288798,71.2643229 L489.047276,125.101563 C513.377698,130.01849 534.804728,139.976823 552.457348,154.789844 C558.902878,160.204688 558.380267,170.163021 559.019013,178.129688 C562.793422,179.25 564.535457,181.303906 564.941932,183.917969 C564.941932,193.565104 564.883864,202.278646 564.883864,211.925781 C564.883864,215.971354 564.767729,217.714063 562.85149,219.58125 C556.6963,225.680729 549.495889,230.348698 539.856629,230.348698 L517.094039,230.348698 C517.384378,228.294792 517.558582,226.178646 517.558582,224.0625 C517.558582,201.59401 500.544707,183.357813 479.58222,183.357813 C458.619733,183.357813 441.605858,201.59401 441.605858,224.0625 C441.605858,226.178646 441.780062,228.294792 442.070401,230.348698 L343.761562,230.348698 L344.748715,64.0445313 Z" id="XMLID_3_" fill="#DCE0D1"></path>
                                    <path d="M558.960946,178.129688 C562.735355,179.25 564.47739,181.303906 564.883864,183.917969 C564.883864,193.565104 564.825797,202.278646 564.825797,211.925781 C564.825797,215.971354 564.709661,217.714063 562.793422,219.58125 C556.638232,225.680729 549.437821,230.348698 539.798561,230.348698 L517.035971,230.348698 C517.32631,228.294792 517.500514,226.178646 517.500514,224.0625 C517.500514,211.241146 511.98407,199.851302 503.331963,192.382552 L503.331963,192.382552 L522.494347,171.096615 L523.655704,173.150521 C524.991264,175.515625 525.804214,178.191927 528.359198,178.191927 L558.960946,178.191927 L558.960946,178.129688 Z" id="XMLID_4_" fill="#3D3D3E"></path>
                                    <path d="M519.765159,152.3625 C517.152107,152.3625 513.726105,155.038802 515.061665,157.403906 L521.913669,169.789583 C525.455807,167.673437 529.346351,166.117448 533.4111,164.997135 C533.353032,160.764844 533.353032,156.532552 533.294964,152.3625 L519.765159,152.3625 Z" id="XMLID_145_" fill="#DA6820"></path>
                                    <path d="M557.160843,162.383073 C556.289825,159.457812 554.838129,156.78151 552.457348,154.789844 C551.470195,153.980729 550.483042,153.171615 549.437821,152.3625 L533.294964,152.3625 C533.294964,156.532552 533.353032,160.764844 533.4111,164.997135 C541.017986,162.88099 549.321686,162.320833 557.160843,162.383073 Z" id="XMLID_148_" fill="#CDCFD0"></path>
                                    <path d="M533.353032,164.997135 C529.288284,166.117448 525.397739,167.673437 521.855601,169.789583 L523.655704,173.088281 C524.991264,175.453385 525.804214,178.129687 528.359198,178.129687 L533.294964,178.129687 C533.4111,173.772917 533.4111,169.353906 533.353032,164.997135 Z" id="XMLID_146_" fill="#EE8322"></path>
                                    <path d="M557.160843,162.383073 C549.321686,162.320833 541.017986,162.88099 533.353032,164.997135 C533.4111,169.353906 533.4111,173.772917 533.353032,178.129688 L558.960946,178.129688 C558.612539,173.150521 558.670606,167.36224 557.160843,162.383073 Z" id="XMLID_149_" fill="#E4E5E6"></path>
                                    <g id="XMLID_5_" transform="translate(446.541624, 187.963542)" fill-rule="nonzero">
                                        <path d="M33.2147996,0.311197917 C15.0395683,0.311197917 0.290339157,16.1200521 0.290339157,35.6010417 C0.290339157,55.0820313 15.0395683,70.8908854 33.2147996,70.8908854 C51.3900308,70.8908854 66.13926,55.0820313 66.13926,35.6010417 C66.13926,16.1200521 51.3900308,0.311197917 33.2147996,0.311197917 Z M33.2147996,57.9450521 C21.717369,57.9450521 12.3684481,47.9244792 12.3684481,35.6010417 C12.3684481,23.2776042 21.717369,13.2570313 33.2147996,13.2570313 C44.7122302,13.2570313 54.0030832,23.2776042 54.0030832,35.6010417 C54.0030832,47.9244792 44.6541624,57.9450521 33.2147996,57.9450521 Z" id="XMLID_143_" fill="#3D3D3E"></path>
                                        <path d="M33.2147996,13.3192708 C21.717369,13.3192708 12.3684481,23.3398438 12.3684481,35.6632812 C12.3684481,47.9867187 21.717369,58.0072917 33.2147996,58.0072917 C44.7122302,58.0072917 54.0030832,47.9867187 54.0030832,35.6632812 C54.0030832,23.3398438 44.6541624,13.3192708 33.2147996,13.3192708 Z M51.5642343,38.8375 C51.0416238,42.3851563 49.5899281,45.6838542 47.557554,48.3601563 C47.1510791,48.8580729 46.8026721,49.3559896 46.3381295,49.7916667 C45.815519,50.3518229 45.2348407,50.9119792 44.6541624,51.4098958 C41.2862282,54.2106771 37.0472765,55.7666667 32.7502569,55.6421875 C28.1628983,55.5177083 23.9820144,53.5882812 20.7882837,50.5385417 C20.5560123,50.2895833 20.323741,50.1028646 20.0914697,49.8539062 C19.6849949,49.4182292 19.27852,48.9203125 18.8720452,48.4223958 C16.7816033,45.7460937 15.3879753,42.5096354 14.8653649,38.8997396 C14.0524152,33.5471354 15.3299075,28.0700521 18.3494347,23.7132812 C18.8720452,22.9664062 19.4527235,22.2817708 20.0914697,21.5971354 C20.323741,21.3481771 20.5560123,21.0992188 20.7882837,20.9125 C23.9820144,17.8627604 28.1628983,15.9333333 32.7502569,15.8088542 C37.0472765,15.684375 41.2862282,17.2403646 44.6541624,20.0411458 C45.2348407,20.5390625 45.815519,21.0992187 46.3381295,21.659375 C46.9768756,22.3440104 47.557554,23.0286458 48.0801644,23.7755208 C51.0996917,27.9455729 52.377184,33.4848958 51.5642343,38.8375 Z" id="XMLID_150_" fill="#C9CACC"></path>
                                        <path d="M44.6541624,19.9166667 C41.2862282,17.1158854 37.0472765,15.5598958 32.7502569,15.684375 C28.1628983,15.8088542 23.9820144,17.7382813 20.7882837,20.7880208 C20.5560123,21.0369792 20.323741,21.2236979 20.0914697,21.4726563 C19.4527235,22.1572917 18.8720452,22.8419271 18.3494347,23.5888021 C15.3299075,27.8833333 14.0524152,33.4226563 14.8653649,38.7752604 C15.3879753,42.3229167 16.8396711,45.6216146 18.8720452,48.2979167 C19.27852,48.7958333 19.626927,49.2315104 20.0914697,49.7294271 C20.323741,49.9783854 20.5560123,50.2273437 20.7882837,50.4140625 C23.9820144,53.4638021 28.1628983,55.3932292 32.7502569,55.5177083 C37.0472765,55.6421875 41.2862282,54.0861979 44.6541624,51.2854167 C45.2348407,50.7875 45.815519,50.2273438 46.3381295,49.6671875 C46.7446043,49.2315104 47.1510791,48.7335938 47.557554,48.2356771 C49.6479959,45.559375 51.0416238,42.3229167 51.5642343,38.7130208 C52.377184,33.3604167 51.0996917,27.8833333 48.0801644,23.5265625 C47.557554,22.7796875 46.9768756,22.0950521 46.3381295,21.4104167 C45.815519,20.9747396 45.2348407,20.4145833 44.6541624,19.9166667 Z M33.2147996,49.7916667 C25.9563207,49.7916667 20.0334018,43.4432292 20.0334018,35.6632813 C20.0334018,27.8833333 25.9563207,21.5348958 33.2147996,21.5348958 C40.4732785,21.5348958 46.3961973,27.8833333 46.3961973,35.6632813 C46.3961973,43.4432292 40.4732785,49.7916667 33.2147996,49.7916667 Z M37.6860226,19.3565104 C38.0924974,18.5473958 39.1377184,18.2361979 40.0668037,18.7963542 L42.5056526,20.165625 C43.3766701,20.6635417 43.7831449,21.7838542 43.3766701,22.5929688 C42.9701953,23.4020833 41.9249743,23.7132813 40.995889,23.2153646 L38.5570401,21.8460938 C37.6860226,21.2859375 37.2795478,20.165625 37.6860226,19.3565104 Z M27.5822199,22.1572917 L25.2014388,23.6510417 C24.3304214,24.2111979 23.2271326,23.9622396 22.8206578,23.153125 C22.3561151,22.3440104 22.7045221,21.2236979 23.5755396,20.6635417 L25.9563207,19.1697917 C26.8273381,18.6096354 27.8725591,18.8585938 28.3371017,19.6677083 C28.8016444,20.5390625 28.4532374,21.5971354 27.5822199,22.1572917 Z M18.0590956,38.7130208 C17.1880781,38.7130208 16.4912641,37.7794271 16.4912641,36.7213542 L16.549332,33.7960938 C16.549332,32.7380208 17.3042138,31.8666667 18.1752312,31.8666667 C19.0462487,31.8666667 19.7430627,32.8002604 19.7430627,33.8583333 L19.6849949,36.7835938 C19.6849949,37.9039063 18.9301131,38.7752604 18.0590956,38.7130208 Z M30.4856115,52.0322917 C30.1372045,52.9036458 29.0919836,53.2770833 28.1628983,52.8414063 L25.6659815,51.6588542 C24.7368962,51.2231771 24.2723535,50.1651042 24.6207605,49.29375 C24.9691675,48.4223958 26.0143885,48.0489583 26.9434738,48.4846354 L29.4984584,49.6671875 C30.3694758,50.1028646 30.8340185,51.1609375 30.4856115,52.0322917 Z M40.3571429,48.2979167 L42.6217883,46.6174479 C43.4347379,45.9950521 44.5380267,46.1195313 45.0606372,46.8664063 C45.5832477,47.6132813 45.2929085,48.7958333 44.4799589,49.4182292 L42.2153135,51.0986979 C41.4023638,51.7210938 40.299075,51.5966146 39.7764645,50.8497396 C39.2538541,50.040625 39.5441932,48.9203125 40.3571429,48.2979167 Z M48.4866393,30.9330729 C49.3576567,30.8708333 50.1125385,31.6799479 50.1706064,32.8002604 L50.3448099,35.7255208 C50.4028777,36.7835938 49.7641316,37.7171875 48.8350462,37.7794271 C47.9640288,37.8416667 47.209147,37.0325521 47.1510791,35.9122396 L46.9768756,32.9869792 C46.9768756,31.9289063 47.6156218,30.9953125 48.4866393,30.9330729 Z" id="XMLID_153_" fill="#8F9194"></path>
                                        <path d="M33.2147996,21.4726563 C25.9563207,21.4726563 20.0334018,27.8210938 20.0334018,35.6010417 C20.0334018,43.3809896 25.9563207,49.7294271 33.2147996,49.7294271 C40.4732785,49.7294271 46.3961973,43.3809896 46.3961973,35.6010417 C46.3961973,27.8833333 40.4732785,21.4726563 33.2147996,21.4726563 Z M33.2147996,44.4390625 C28.6855087,44.4390625 25.0272354,40.5179688 25.0272354,35.6632813 C25.0272354,30.8085938 28.6855087,26.8875 33.2147996,26.8875 C37.7440904,26.8875 41.4023638,30.8085937 41.4023638,35.6632813 C41.4023638,40.4557292 37.6860226,44.4390625 33.2147996,44.4390625 Z" id="XMLID_162_" fill="#C9CACC"></path>
                                        <path d="M33.2147996,26.8875 C28.6855087,26.8875 25.0272354,30.8085938 25.0272354,35.6632813 C25.0272354,40.4557292 28.6855087,44.4390625 33.2147996,44.4390625 C37.7440904,44.4390625 41.4023638,40.5179688 41.4023638,35.6632813 C41.4023638,30.8085938 37.6860226,26.8875 33.2147996,26.8875 Z M37.1053443,30.3729167 C37.3956835,30.0617188 37.9182939,30.0617188 38.2086331,30.3729167 C38.4989723,30.6841146 38.4989723,31.2442708 38.2086331,31.5554688 C37.9182939,31.8666667 37.3956835,31.8666667 37.1053443,31.5554688 C36.8150051,31.2442708 36.8150051,30.6841146 37.1053443,30.3729167 Z M33.3309353,43.2565104 C32.8663926,43.2565104 32.5179856,42.8830729 32.5179856,42.3851563 C32.5179856,41.9494792 32.8663926,41.5138021 33.3309353,41.5138021 C33.7374101,41.5138021 34.1438849,41.8872396 34.1438849,42.3851563 C34.1438849,42.8208333 33.7374101,43.2565104 33.3309353,43.2565104 Z M33.3309353,28.1945313 C33.7374101,28.1945313 34.1438849,28.5679688 34.1438849,29.0658854 C34.1438849,29.5015625 33.7954779,29.9372396 33.3309353,29.9372396 C32.8663926,29.9372396 32.5179856,29.5638021 32.5179856,29.0658854 C32.5179856,28.5679688 32.8663926,28.1945313 33.3309353,28.1945313 Z M33.2147996,40.0822917 C30.9501542,40.0822917 29.0919836,38.090625 29.0919836,35.6632813 C29.0919836,33.2359375 30.9501542,31.2442708 33.2147996,31.2442708 C35.479445,31.2442708 37.3376156,33.2359375 37.3376156,35.6632813 C37.3376156,38.090625 35.479445,40.0822917 33.2147996,40.0822917 Z M29.614594,31.4309896 C29.2661871,31.7421875 28.8016444,31.7421875 28.5113052,31.36875 C28.2209661,30.9953125 28.2209661,30.4973958 28.5693731,30.1861979 C28.9177801,29.875 29.3823227,29.875 29.6726619,30.2484375 C30.0210689,30.5596354 29.963001,31.1197917 29.614594,31.4309896 Z M27.1176773,36.6591146 C26.6531346,36.6591146 26.3047276,36.2856771 26.3047276,35.7877604 C26.3047276,35.3520833 26.6531346,34.9164063 27.1176773,34.9164063 C27.5241521,34.9164063 27.9306269,35.2898438 27.9306269,35.7877604 C27.9306269,36.2234375 27.5822199,36.6591146 27.1176773,36.6591146 Z M29.4984584,41.078125 C29.2081192,41.3893229 28.6855087,41.3893229 28.3951696,41.078125 C28.0467626,40.7669271 28.0467626,40.2067708 28.3951696,39.8955729 C28.6855087,39.584375 29.2081192,39.584375 29.4984584,39.8955729 C29.7887975,40.1445313 29.7887975,40.7046875 29.4984584,41.078125 Z M36.9892086,39.9578125 C37.3376156,39.6466146 37.8021583,39.6466146 38.0924974,40.0200521 C38.3828366,40.33125 38.3828366,40.8914063 38.0344296,41.2648438 C37.6860226,41.5760417 37.22148,41.5760417 36.873073,41.2026042 C36.6408016,40.8291667 36.6408016,40.33125 36.9892086,39.9578125 Z M38.7312436,35.6632813 C38.7312436,35.1653646 39.0796506,34.7919271 39.5441932,34.7919271 C40.0087359,34.7919271 40.3571429,35.1653646 40.3571429,35.6632813 C40.3571429,36.1611979 40.0087359,36.5346354 39.5441932,36.5346354 C39.0796506,36.4723958 38.7312436,36.0989583 38.7312436,35.6632813 Z" id="XMLID_165_" fill="#E4E5E6"></path>
                                        <path d="M33.2147996,31.2442708 C30.9501542,31.2442708 29.0919836,33.2359375 29.0919836,35.6632813 C29.0919836,38.090625 30.9501542,40.0822917 33.2147996,40.0822917 C35.479445,40.0822917 37.3376156,38.090625 37.3376156,35.6632813 C37.3376156,33.1736979 35.479445,31.2442708 33.2147996,31.2442708 Z M33.2147996,38.4018229 C31.7631038,38.4018229 30.659815,37.1570313 30.659815,35.6632813 C30.659815,34.1695313 31.8211716,32.9247396 33.2147996,32.9247396 C34.6084275,32.9247396 35.7697842,34.1695313 35.7697842,35.6632813 C35.7697842,37.1570313 34.6084275,38.4018229 33.2147996,38.4018229 Z" id="XMLID_176_" fill="#8F9194"></path>
                                        <path d="M33.2147996,32.8625 C31.7631038,32.8625 30.659815,34.1072917 30.659815,35.6010417 C30.659815,37.0947917 31.8211716,38.3395833 33.2147996,38.3395833 C34.6084275,38.3395833 35.7697842,37.0947917 35.7697842,35.6010417 C35.7697842,34.1072917 34.6084275,32.8625 33.2147996,32.8625 Z" id="XMLID_177_" fill="#3D3D3E"></path>
                                        <path d="M19.6849949,36.7835938 L19.7430627,33.8583333 C19.7430627,32.8002604 19.0462487,31.8666667 18.1752312,31.8666667 C17.3042138,31.8666667 16.549332,32.7380208 16.549332,33.7960938 L16.4912641,36.7213542 C16.4912641,37.7794271 17.1880781,38.7130208 18.0590956,38.7130208 C18.9301131,38.7752604 19.6849949,37.9039063 19.6849949,36.7835938 Z" id="XMLID_178_" fill="#616264"></path>
                                        <path d="M25.9563207,19.2320313 L23.5755396,20.7257813 C22.7045221,21.2859375 22.3561151,22.3440104 22.8206578,23.2153646 C23.2852004,24.0244792 24.3304214,24.2734375 25.2014388,23.7132813 L27.5822199,22.2195313 C28.4532374,21.659375 28.8016444,20.5390625 28.3371017,19.7299479 C27.8725591,18.8585938 26.8273381,18.671875 25.9563207,19.2320313 Z" id="XMLID_179_" fill="#616264"></path>
                                        <path d="M38.5570401,21.7838542 L40.995889,23.153125 C41.8669065,23.6510417 42.9121274,23.4020833 43.3766701,22.5307292 C43.7831449,21.7216146 43.3766701,20.6013021 42.5056526,20.1033854 L40.0668037,18.7341146 C39.1957862,18.2361979 38.0924974,18.4851563 37.6860226,19.2942708 C37.2795478,20.165625 37.6860226,21.2859375 38.5570401,21.7838542 Z" id="XMLID_180_" fill="#616264"></path>
                                        <path d="M47.209147,35.9122396 C47.2672148,36.9703125 48.0220966,37.8416667 48.8931141,37.7794271 C49.7641316,37.7171875 50.4609455,36.7835938 50.4028777,35.7255208 L50.2286742,32.8002604 C50.1706064,31.6799479 49.4157246,30.8708333 48.5447071,30.9330729 C47.6736896,30.9953125 46.9768756,31.9289063 47.0349435,32.9869792 L47.209147,35.9122396 Z" id="XMLID_181_" fill="#616264"></path>
                                        <path d="M42.2153135,51.0986979 L44.4799589,49.4182292 C45.2929085,48.7958333 45.5832477,47.6755208 45.0606372,46.8664063 C44.5380267,46.0572917 43.4928058,45.9950521 42.6217883,46.6174479 L40.3571429,48.2979167 C39.5441932,48.9203125 39.2538541,50.040625 39.7764645,50.8497396 C40.299075,51.5966146 41.344296,51.7210938 42.2153135,51.0986979 Z" id="XMLID_182_" fill="#616264"></path>
                                        <path d="M29.4403905,49.6671875 L26.885406,48.4846354 C25.9563207,48.0489583 24.9110997,48.4223958 24.5626927,49.29375 C24.2142857,50.1651042 24.6788284,51.2231771 25.6079137,51.6588542 L28.1048304,52.8414062 C29.0339157,53.2770833 30.0791367,52.9036458 30.4275437,52.0322917 C30.8340185,51.1609375 30.3694758,50.1028646 29.4403905,49.6671875 Z" id="XMLID_183_" fill="#616264"></path>
                                        <path d="M33.3309353,29.875 C33.7374101,29.875 34.1438849,29.5015625 34.1438849,29.0036458 C34.1438849,28.5057292 33.7954779,28.1322917 33.3309353,28.1322917 C32.8663926,28.1322917 32.5179856,28.5057292 32.5179856,29.0036458 C32.5179856,29.5015625 32.8663926,29.875 33.3309353,29.875 Z" id="XMLID_184_" fill="#616264"></path>
                                        <path d="M33.3309353,41.5138021 C32.8663926,41.5138021 32.5179856,41.8872396 32.5179856,42.3851563 C32.5179856,42.8208333 32.8663926,43.2565104 33.3309353,43.2565104 C33.7374101,43.2565104 34.1438849,42.8830729 34.1438849,42.3851563 C34.1438849,41.8872396 33.7374101,41.5138021 33.3309353,41.5138021 Z" id="XMLID_185_" fill="#616264"></path>
                                        <path d="M40.3571429,35.6010417 C40.3571429,35.103125 40.0087359,34.7296875 39.5441932,34.7296875 C39.0796506,34.7296875 38.7312436,35.103125 38.7312436,35.6010417 C38.7312436,36.0989583 39.0796506,36.4723958 39.5441932,36.4723958 C40.0087359,36.4723958 40.3571429,36.0989583 40.3571429,35.6010417 Z" id="XMLID_186_" fill="#616264"></path>
                                        <path d="M27.0596095,34.9164063 C26.5950668,34.9164063 26.2466598,35.2898438 26.2466598,35.7877604 C26.2466598,36.2856771 26.5950668,36.6591146 27.0596095,36.6591146 C27.5241521,36.6591146 27.8725591,36.2856771 27.8725591,35.7877604 C27.8725591,35.2898438 27.5241521,34.9164063 27.0596095,34.9164063 Z" id="XMLID_187_" fill="#616264"></path>
                                        <path d="M38.0924974,41.2648438 C38.4409044,40.9536458 38.4409044,40.3934896 38.1505653,40.0200521 C37.8602261,39.6466146 37.3376156,39.6466146 37.0472765,39.9578125 C36.7569373,40.2690104 36.6988695,40.8291667 36.9892086,41.2026042 C37.22148,41.5138021 37.7440904,41.5760417 38.0924974,41.2648438 Z" id="XMLID_188_" fill="#616264"></path>
                                        <path d="M28.5693731,30.1861979 C28.2209661,30.4973958 28.2209661,31.0575521 28.5113052,31.36875 C28.8016444,31.7421875 29.3242549,31.7421875 29.614594,31.4309896 C29.963001,31.1197917 29.963001,30.5596354 29.6726619,30.1861979 C29.3823227,29.875 28.8597122,29.875 28.5693731,30.1861979 Z" id="XMLID_189_" fill="#616264"></path>
                                        <path d="M28.3371017,39.8333333 C28.0467626,40.1445313 28.0467626,40.7046875 28.3371017,41.0158854 C28.6274409,41.3270833 29.1500514,41.3270833 29.4403905,41.0158854 C29.7307297,40.7046875 29.7307297,40.1445313 29.4403905,39.7710938 C29.2081192,39.5221354 28.6855087,39.5221354 28.3371017,39.8333333 Z" id="XMLID_190_" fill="#616264"></path>
                                        <path d="M38.2667009,31.5554688 C38.5570401,31.1820313 38.5570401,30.6841146 38.2667009,30.3729167 C37.9763618,30.0617188 37.4537513,30.0617188 37.1634121,30.3729167 C36.873073,30.6841146 36.873073,31.2442708 37.1634121,31.5554688 C37.4537513,31.9289063 37.9763618,31.9289063 38.2667009,31.5554688 Z" id="XMLID_191_" fill="#616264"></path>
                                    </g>
                                    <rect id="XMLID_95_" fill="#FFD400" x="7.60688592" y="0" width="404.035971" height="9.77161458"></rect>
                                    <rect id="XMLID_96_" fill="#4A4B4C" x="7.60688592" y="185.349479" width="336.212744" height="28.2567708"></rect>
                                    <rect id="XMLID_98_" fill="#FFD400" x="7.60688592" y="160.640365" width="336.445015" height="16.5557292"></rect>
                                    <path d="M473.775437,146.014062 L485.2148,146.014062 C485.911614,146.014062 486.492292,146.636458 486.492292,147.383333 L486.492292,150.059635 C486.492292,150.80651 485.911614,151.428906 485.2148,151.428906 L473.775437,151.428906 C473.078623,151.428906 472.497945,150.80651 472.497945,150.059635 L472.497945,147.383333 C472.497945,146.636458 473.078623,146.014062 473.775437,146.014062 L473.775437,146.014062 Z" id="XMLID_195_" fill="#EE8322"></path>
                                    <path d="M362.2852,139.665625 L379.763618,139.665625 C380.692703,139.665625 381.447585,140.47474 381.447585,141.470573 L381.447585,144.769271 C381.447585,145.765104 380.692703,146.574219 379.763618,146.574219 L362.2852,146.574219 C361.356115,146.574219 360.601233,145.765104 360.601233,144.769271 L360.601233,141.470573 C360.601233,140.47474 361.356115,139.665625 362.2852,139.665625 L362.2852,139.665625 Z" id="XMLID_196_" fill="#E4E5E6"></path>
                                    <path d="M247.42703,194.12526 L313.101747,194.12526 C317.224563,194.12526 320.650565,199.602344 320.650565,206.261979 L320.650565,227.11224 C320.650565,233.771875 317.282631,239.248958 313.101747,239.248958 L247.42703,239.248958 C243.304214,239.248958 239.878212,233.771875 239.878212,227.11224 L239.878212,206.261979 C239.878212,199.602344 243.304214,194.12526 247.42703,194.12526 L247.42703,194.12526 Z" id="XMLID_199_" fill="#FFD400"></path>
                                    <g id="XMLID_7_" transform="translate(40.647482, 187.963542)" fill-rule="nonzero">
                                        <path d="M33.3309353,0.311197917 C15.155704,0.311197917 0.40647482,16.1200521 0.40647482,35.6010417 C0.40647482,55.0820313 15.155704,70.8908854 33.3309353,70.8908854 C51.5061665,70.8908854 66.2553957,55.0820313 66.2553957,35.6010417 C66.3134635,16.1200521 51.5642343,0.311197917 33.3309353,0.311197917 Z M33.3309353,57.9450521 C21.8335046,57.9450521 12.4845838,47.9244792 12.4845838,35.6010417 C12.4845838,23.2776042 21.8335046,13.2570313 33.3309353,13.2570313 C44.8283659,13.2570313 54.1192189,23.2776042 54.1192189,35.6010417 C54.1772867,47.9244792 44.8283659,57.9450521 33.3309353,57.9450521 Z" id="XMLID_58_" fill="#3D3D3E"></path>
                                        <path d="M33.3309353,13.3192708 C21.8335046,13.3192708 12.4845838,23.3398438 12.4845838,35.6632812 C12.4845838,47.9867187 21.8335046,58.0072917 33.3309353,58.0072917 C44.8283659,58.0072917 54.1192189,47.9867187 54.1192189,35.6632812 C54.1772867,23.3398438 44.8283659,13.3192708 33.3309353,13.3192708 Z M51.7384378,38.8375 C51.2158273,42.3851563 49.7641316,45.6838542 47.7317575,48.3601563 C47.3252826,48.8580729 46.9768756,49.3559896 46.512333,49.7916667 C45.9897225,50.3518229 45.4090442,50.9119792 44.8283659,51.4098958 C41.4604317,54.2106771 37.22148,55.7666667 32.9244604,55.6421875 C28.3371017,55.5177083 24.1562179,53.5882812 20.9624872,50.5385417 C20.7302158,50.2895833 20.4979445,50.1028646 20.2656732,49.8539062 C19.8591984,49.4182292 19.4527235,48.9203125 19.0462487,48.4223958 C16.9558068,45.7460937 15.5621788,42.5096354 15.0395683,38.8997396 C14.2266187,33.5471354 15.504111,28.0700521 18.5236382,23.7132812 C19.0462487,22.9664062 19.626927,22.2817708 20.2656732,21.5971354 C20.4979445,21.3481771 20.7302158,21.0992188 20.9624872,20.9125 C24.1562179,17.8627604 28.3371017,15.9333333 32.9244604,15.8088542 C37.22148,15.684375 41.4604317,17.2403646 44.8283659,20.0411458 C45.4090442,20.5390625 45.9897225,21.0992187 46.512333,21.659375 C47.1510791,22.3440104 47.7317575,23.0286458 48.2543679,23.7755208 C51.2158273,27.9455729 52.4933196,33.4848958 51.7384378,38.8375 Z" id="XMLID_54_" fill="#C9CACC"></path>
                                        <path d="M44.770298,19.9166667 C41.4023638,17.1158854 37.1634121,15.5598958 32.8663926,15.684375 C28.2790339,15.8088542 24.0981501,17.7382813 20.9044193,20.7880208 C20.672148,21.0369792 20.4398767,21.2236979 20.2076053,21.4726563 C19.5688592,22.1572917 18.9881809,22.8419271 18.4655704,23.5888021 C15.4460432,27.8833333 14.1685509,33.4226563 14.9815005,38.7752604 C15.504111,42.3229167 16.9558068,45.6216146 18.9881809,48.2979167 C19.3946557,48.7958333 19.7430627,49.2315104 20.2076053,49.7294271 C20.4398767,49.9783854 20.672148,50.2273437 20.9044193,50.4140625 C24.0981501,53.4638021 28.2790339,55.3932292 32.8663926,55.5177083 C37.1634121,55.6421875 41.4023638,54.0861979 44.770298,51.2854167 C45.3509764,50.7875 45.9316547,50.2273438 46.4542652,49.6671875 C46.86074,49.2315104 47.2672148,48.7335938 47.6736896,48.2356771 C49.7641316,45.559375 51.1577595,42.3229167 51.68037,38.7130208 C52.4933196,33.3604167 51.2158273,27.8833333 48.1963001,23.5265625 C47.6736896,22.7796875 47.0930113,22.0950521 46.4542652,21.4104167 C45.9316547,20.9747396 45.3509764,20.4145833 44.770298,19.9166667 Z M33.3309353,49.7916667 C26.0724563,49.7916667 20.1495375,43.4432292 20.1495375,35.6632813 C20.1495375,27.8833333 26.0724563,21.5348958 33.3309353,21.5348958 C40.5894142,21.5348958 46.512333,27.8833333 46.512333,35.6632813 C46.512333,43.4432292 40.5894142,49.7916667 33.3309353,49.7916667 Z M37.8021583,19.3565104 C38.2086331,18.5473958 39.2538541,18.2361979 40.1829394,18.7963542 L42.6217883,20.165625 C43.4928058,20.6635417 43.8992806,21.7838542 43.4928058,22.5929688 C43.0863309,23.4020833 42.04111,23.7132813 41.1120247,23.2153646 L38.6731757,21.8460938 C37.8021583,21.2859375 37.3956835,20.165625 37.8021583,19.3565104 Z M27.6983556,22.1572917 L25.3175745,23.6510417 C24.446557,24.2111979 23.3432682,23.9622396 22.9367934,23.153125 C22.4722508,22.3440104 22.8206578,21.2236979 23.6916752,20.6635417 L26.0724563,19.1697917 C26.9434738,18.6096354 27.9886948,18.8585938 28.4532374,19.6677083 C28.9177801,20.5390625 28.5693731,21.5971354 27.6983556,22.1572917 Z M18.1752312,38.7130208 C17.3042138,38.7130208 16.6073998,37.7794271 16.6073998,36.7213542 L16.6654676,33.7960938 C16.6654676,32.7380208 17.4203494,31.8666667 18.2913669,31.8666667 C19.1623844,31.8666667 19.8591984,32.8002604 19.8591984,33.8583333 L19.8011305,36.7835938 C19.8011305,37.9039063 19.1043165,38.7752604 18.1752312,38.7130208 Z M30.659815,52.0322917 C30.311408,52.9036458 29.2661871,53.2770833 28.3371017,52.8414063 L25.840185,51.6588542 C24.9110997,51.2231771 24.446557,50.1651042 24.794964,49.29375 C25.143371,48.4223958 26.188592,48.0489583 27.1176773,48.4846354 L29.6726619,49.6671875 C30.4856115,50.1028646 30.9501542,51.1609375 30.659815,52.0322917 Z M40.4732785,48.2979167 L42.7379239,46.6174479 C43.5508736,45.9950521 44.6541624,46.1195313 45.1767729,46.8664063 C45.6993834,47.6132813 45.4090442,48.7958333 44.5960946,49.4182292 L42.3314491,51.0986979 C41.5184995,51.7210938 40.4152107,51.5966146 39.8926002,50.8497396 C39.4280576,50.040625 39.6603289,48.9203125 40.4732785,48.2979167 Z M48.6608428,30.9330729 C49.5318602,30.8708333 50.286742,31.6799479 50.3448099,32.8002604 L50.5190134,35.7255208 C50.5770812,36.7835938 49.938335,37.7171875 49.0092497,37.7794271 C48.1382323,37.8416667 47.3833505,37.0325521 47.3252826,35.9122396 L47.1510791,32.9869792 C47.0930113,31.9289063 47.7898253,30.9953125 48.6608428,30.9330729 Z" id="XMLID_43_" fill="#8F9194"></path>
                                        <path d="M33.3309353,21.4726563 C26.0724563,21.4726563 20.1495375,27.8210938 20.1495375,35.6010417 C20.1495375,43.3809896 26.0724563,49.7294271 33.3309353,49.7294271 C40.5894142,49.7294271 46.512333,43.3809896 46.512333,35.6010417 C46.512333,27.8833333 40.5894142,21.4726563 33.3309353,21.4726563 Z M33.3309353,44.4390625 C28.8016444,44.4390625 25.143371,40.5179688 25.143371,35.6632813 C25.143371,30.8085938 28.8016444,26.8875 33.3309353,26.8875 C37.8602261,26.8875 41.5184995,30.8085937 41.5184995,35.6632813 C41.5184995,40.4557292 37.8602261,44.4390625 33.3309353,44.4390625 Z" id="XMLID_40_" fill="#C9CACC"></path>
                                        <path d="M33.3309353,26.8875 C28.8016444,26.8875 25.143371,30.8085938 25.143371,35.6632813 C25.143371,40.4557292 28.8016444,44.4390625 33.3309353,44.4390625 C37.8602261,44.4390625 41.5184995,40.5179688 41.5184995,35.6632813 C41.5184995,30.8085938 37.8602261,26.8875 33.3309353,26.8875 Z M37.2795478,30.3729167 C37.5698869,30.0617188 38.0924974,30.0617188 38.3828366,30.3729167 C38.6731757,30.6841146 38.6731757,31.2442708 38.3828366,31.5554688 C38.0924974,31.8666667 37.5698869,31.8666667 37.2795478,31.5554688 C36.9892086,31.2442708 36.9892086,30.6841146 37.2795478,30.3729167 Z M33.4470709,43.2565104 C32.9825283,43.2565104 32.6341213,42.8830729 32.6341213,42.3851563 C32.6341213,41.9494792 32.9825283,41.5138021 33.4470709,41.5138021 C33.8535457,41.5138021 34.2600206,41.8872396 34.2600206,42.3851563 C34.2600206,42.8208333 33.9116136,43.2565104 33.4470709,43.2565104 Z M33.4470709,28.1945313 C33.8535457,28.1945313 34.2600206,28.5679688 34.2600206,29.0658854 C34.2600206,29.5015625 33.9116136,29.9372396 33.4470709,29.9372396 C32.9825283,29.9372396 32.6341213,29.5638021 32.6341213,29.0658854 C32.6341213,28.5679688 33.0405961,28.1945313 33.4470709,28.1945313 Z M33.3309353,40.0822917 C31.0662898,40.0822917 29.2081192,38.090625 29.2081192,35.6632813 C29.2081192,33.2359375 31.0662898,31.2442708 33.3309353,31.2442708 C35.5955807,31.2442708 37.4537513,33.2359375 37.4537513,35.6632813 C37.4537513,38.090625 35.6536485,40.0822917 33.3309353,40.0822917 Z M29.7887975,31.4309896 C29.4403905,31.7421875 28.9758479,31.7421875 28.6855087,31.36875 C28.3951696,30.9953125 28.3951696,30.4973958 28.7435766,30.1861979 C29.0919836,29.875 29.5565262,29.875 29.8468654,30.2484375 C30.1372045,30.5596354 30.1372045,31.1197917 29.7887975,31.4309896 Z M27.2338129,36.6591146 C26.7692703,36.6591146 26.4208633,36.2856771 26.4208633,35.7877604 C26.4208633,35.3520833 26.7692703,34.9164063 27.2338129,34.9164063 C27.6402878,34.9164063 28.0467626,35.2898438 28.0467626,35.7877604 C28.0467626,36.2234375 27.6983556,36.6591146 27.2338129,36.6591146 Z M29.6726619,41.078125 C29.3823227,41.3893229 28.8597122,41.3893229 28.5693731,41.078125 C28.2209661,40.7669271 28.2209661,40.2067708 28.5693731,39.8955729 C28.8597122,39.584375 29.3823227,39.584375 29.6726619,39.8955729 C29.963001,40.1445313 29.963001,40.7046875 29.6726619,41.078125 Z M37.1053443,39.9578125 C37.4537513,39.6466146 37.9182939,39.6466146 38.2086331,40.0200521 C38.4989723,40.33125 38.4989723,40.8914063 38.1505653,41.2648438 C37.8021583,41.5760417 37.3376156,41.5760417 36.9892086,41.2026042 C36.8150051,40.8291667 36.8150051,40.33125 37.1053443,39.9578125 Z M38.9054471,35.6632813 C38.9054471,35.1653646 39.2538541,34.7919271 39.7183967,34.7919271 C40.1829394,34.7919271 40.5313464,35.1653646 40.5313464,35.6632813 C40.5313464,36.1611979 40.1829394,36.5346354 39.7183967,36.5346354 C39.2538541,36.4723958 38.9054471,36.0989583 38.9054471,35.6632813 Z" id="XMLID_29_" fill="#E4E5E6"></path>
                                        <path d="M33.3309353,31.2442708 C31.0662898,31.2442708 29.2081192,33.2359375 29.2081192,35.6632813 C29.2081192,38.090625 31.0662898,40.0822917 33.3309353,40.0822917 C35.5955807,40.0822917 37.4537513,38.090625 37.4537513,35.6632813 C37.4537513,33.1736979 35.6536485,31.2442708 33.3309353,31.2442708 Z M33.3309353,38.4018229 C31.8792395,38.4018229 30.7759507,37.1570313 30.7759507,35.6632813 C30.7759507,34.1695313 31.9373073,32.9247396 33.3309353,32.9247396 C34.7245632,32.9247396 35.8859198,34.1695313 35.8859198,35.6632813 C35.9439877,37.1570313 34.782631,38.4018229 33.3309353,38.4018229 Z" id="XMLID_26_" fill="#8F9194"></path>
                                        <path d="M33.3309353,32.8625 C31.8792395,32.8625 30.7759507,34.1072917 30.7759507,35.6010417 C30.7759507,37.0947917 31.9373073,38.3395833 33.3309353,38.3395833 C34.7245632,38.3395833 35.8859198,37.0947917 35.8859198,35.6010417 C35.9439877,34.1072917 34.782631,32.8625 33.3309353,32.8625 Z" id="XMLID_25_" fill="#3D3D3E"></path>
                                        <path d="M19.8591984,36.7835938 L19.9172662,33.8583333 C19.9172662,32.8002604 19.2204522,31.8666667 18.3494347,31.8666667 C17.4784173,31.8666667 16.7235355,32.7380208 16.7235355,33.7960938 L16.6654676,36.7213542 C16.6654676,37.7794271 17.3622816,38.7130208 18.2332991,38.7130208 C19.1043165,38.7752604 19.8011305,37.9039063 19.8591984,36.7835938 Z" id="XMLID_24_" fill="#616264"></path>
                                        <path d="M26.0724563,19.2320313 L23.6916752,20.7257813 C22.8206578,21.2859375 22.4722508,22.3440104 22.9367934,23.2153646 C23.4013361,24.0244792 24.446557,24.2734375 25.3175745,23.7132813 L27.6983556,22.2195313 C28.5693731,21.659375 28.9177801,20.5390625 28.4532374,19.7299479 C28.0467626,18.8585938 26.9434738,18.671875 26.0724563,19.2320313 Z" id="XMLID_23_" fill="#616264"></path>
                                        <path d="M38.6731757,21.7838542 L41.1120247,23.153125 C41.9830421,23.6510417 43.0282631,23.4020833 43.4928058,22.5307292 C43.8992806,21.7216146 43.4928058,20.6013021 42.6217883,20.1033854 L40.1829394,18.7341146 C39.3119219,18.2361979 38.2086331,18.4851563 37.8021583,19.2942708 C37.3956835,20.165625 37.8021583,21.2859375 38.6731757,21.7838542 Z" id="XMLID_22_" fill="#616264"></path>
                                        <path d="M47.3252826,35.9122396 C47.3833505,36.9703125 48.1382323,37.8416667 49.0092497,37.7794271 C49.8802672,37.7171875 50.5770812,36.7835938 50.5190134,35.7255208 L50.3448099,32.8002604 C50.286742,31.6799479 49.5318602,30.8708333 48.6608428,30.9330729 C47.7898253,30.9953125 47.0930113,31.9289063 47.1510791,32.9869792 L47.3252826,35.9122396 Z" id="XMLID_21_" fill="#616264"></path>
                                        <path d="M42.3314491,51.0986979 L44.5960946,49.4182292 C45.4090442,48.7958333 45.6993834,47.6755208 45.1767729,46.8664063 C44.6541624,46.0572917 43.6089414,45.9950521 42.7379239,46.6174479 L40.4732785,48.2979167 C39.6603289,48.9203125 39.3699897,50.040625 39.8926002,50.8497396 C40.4152107,51.5966146 41.5184995,51.7210938 42.3314491,51.0986979 Z" id="XMLID_20_" fill="#616264"></path>
                                        <path d="M29.5565262,49.6671875 L27.0015416,48.4846354 C26.0724563,48.0489583 25.0272354,48.4223958 24.6788284,49.29375 C24.3304214,50.1651042 24.794964,51.2231771 25.7240493,51.6588542 L28.2209661,52.8414062 C29.1500514,53.2770833 30.1952724,52.9036458 30.5436793,52.0322917 C30.9501542,51.1609375 30.4856115,50.1028646 29.5565262,49.6671875 Z" id="XMLID_19_" fill="#616264"></path>
                                        <path d="M33.4470709,29.875 C33.8535457,29.875 34.2600206,29.5015625 34.2600206,29.0036458 C34.2600206,28.5057292 33.9116136,28.1322917 33.4470709,28.1322917 C32.9825283,28.1322917 32.6341213,28.5057292 32.6341213,29.0036458 C32.6341213,29.5015625 33.0405961,29.875 33.4470709,29.875 Z" id="XMLID_18_" fill="#616264"></path>
                                        <path d="M33.4470709,41.5138021 C32.9825283,41.5138021 32.6341213,41.8872396 32.6341213,42.3851563 C32.6341213,42.8208333 32.9825283,43.2565104 33.4470709,43.2565104 C33.8535457,43.2565104 34.2600206,42.8830729 34.2600206,42.3851563 C34.2600206,41.8872396 33.9116136,41.5138021 33.4470709,41.5138021 Z" id="XMLID_17_" fill="#616264"></path>
                                        <path d="M40.4732785,35.6010417 C40.4732785,35.103125 40.1248715,34.7296875 39.6603289,34.7296875 C39.1957862,34.7296875 38.8473792,35.103125 38.8473792,35.6010417 C38.8473792,36.0989583 39.1957862,36.4723958 39.6603289,36.4723958 C40.1248715,36.4723958 40.4732785,36.0989583 40.4732785,35.6010417 Z" id="XMLID_16_" fill="#616264"></path>
                                        <path d="M27.2338129,34.9164063 C26.7692703,34.9164063 26.4208633,35.2898438 26.4208633,35.7877604 C26.4208633,36.2856771 26.7692703,36.6591146 27.2338129,36.6591146 C27.6983556,36.6591146 28.0467626,36.2856771 28.0467626,35.7877604 C28.0467626,35.2898438 27.6983556,34.9164063 27.2338129,34.9164063 Z" id="XMLID_15_" fill="#616264"></path>
                                        <path d="M38.2086331,41.2648438 C38.5570401,40.9536458 38.5570401,40.3934896 38.2667009,40.0200521 C37.9763618,39.6466146 37.4537513,39.6466146 37.1634121,39.9578125 C36.873073,40.2690104 36.8150051,40.8291667 37.1053443,41.2026042 C37.3956835,41.5138021 37.9182939,41.5760417 38.2086331,41.2648438 Z" id="XMLID_14_" fill="#616264"></path>
                                        <path d="M28.6855087,30.1861979 C28.3371017,30.4973958 28.3371017,31.0575521 28.6274409,31.36875 C28.9177801,31.7421875 29.4403905,31.7421875 29.7307297,31.4309896 C30.0791367,31.1197917 30.0791367,30.5596354 29.7887975,30.1861979 C29.5565262,29.875 29.0339157,29.875 28.6855087,30.1861979 Z" id="XMLID_11_" fill="#616264"></path>
                                        <path d="M28.5113052,39.8333333 C28.2209661,40.1445313 28.2209661,40.7046875 28.5113052,41.0158854 C28.8016444,41.3270833 29.3242549,41.3270833 29.614594,41.0158854 C29.9049332,40.7046875 29.9049332,40.1445313 29.614594,39.7710938 C29.3242549,39.5221354 28.8016444,39.5221354 28.5113052,39.8333333 Z" id="XMLID_10_" fill="#616264"></path>
                                        <path d="M38.3828366,31.5554688 C38.6731757,31.1820313 38.6731757,30.6841146 38.3828366,30.3729167 C38.0924974,30.0617188 37.5698869,30.0617188 37.2795478,30.3729167 C36.9892086,30.6841146 36.9892086,31.2442708 37.2795478,31.5554688 C37.5698869,31.9289063 38.0924974,31.9289063 38.3828366,31.5554688 Z" id="XMLID_9_" fill="#616264"></path>
                                    </g>
                                </g>
                            </g>
                            <path d="M489.047276,125.101563 L485.505139,125.972917 C483.298561,126.533073 480.91778,125.972917 479.117677,124.479167 L427.611511,81.6583333 C424.998458,79.4799479 424.591984,75.434375 426.740493,72.7580729 L426.856629,72.5713542 L489.047276,125.101563 Z" id="XMLID_8_" fill="#4E0000"></path>
                            <path d="M411.642857,77.7372396 L465.471737,121.865104 C467.213772,123.296615 466.284687,126.284115 464.078109,126.284115 L364.259507,126.284115 C362.227133,126.284115 360.601233,124.541406 360.601233,122.363021 L360.601233,79.0442708 C360.601233,76.8658854 362.227133,75.1231771 364.259507,75.1231771 L404.442446,75.1231771 C406.997431,75.1231771 409.552415,76.0567708 411.642857,77.7372396 Z" id="XMLID_49_" fill="#4E0000"></path>
                            <path d="M414.313977,28.0700521 L413.44296,28.0700521 L413.44296,12.5723958 L414.313977,12.5723958 C417.043165,12.5723958 419.249743,14.9375 419.249743,17.8627604 L419.249743,22.7796875 C419.249743,25.7049479 417.043165,28.0700521 414.313977,28.0700521 Z" id="XMLID_141_" fill="#EE8322"></path>
                        </g>
                        <path d="M401.074512,75.1231771 C394.338643,83.8367188 388.00925,92.8614583 381.912127,102.072917 C400.087359,101.699479 418.204522,100.579167 436.147482,97.840625 L411.642857,77.7372396 C409.552415,76.0567708 407.055498,75.1231771 404.442446,75.1231771 L401.074512,75.1231771 Z" id="XMLID_68_" fill="#6F0000"></path>
                        <path d="M375.582734,102.197396 C381.621788,92.9859375 387.835046,83.8989583 394.454779,75.1231771 L364.259507,75.1231771 C362.227133,75.1231771 360.601233,76.8658854 360.601233,79.0442708 L360.601233,102.259635 C365.595067,102.259635 370.5889,102.259635 375.582734,102.197396 Z" id="XMLID_69_" fill="#6F0000"></path>
                    </g>
                    <rect id="XMLID_63_" fill="#1F1A41" x="0" y="554" width="813" height="55"></rect>
                    <path d="M229.439754,267 L20,267 C20,267 27.3242878,251.350436 51.7967099,246.113132 C64.5851489,243.369782 65.1083124,256.525392 65.1083124,256.525392 C65.1083124,256.525392 78.9430783,212.569446 113.76251,212.008306 C148.581942,211.447167 151.13963,239.504153 151.13963,239.504153 C151.13963,239.504153 170.089771,225.787404 191.597601,232.895174 C213.10543,240.002944 196.712976,255.964252 196.712976,255.964252 C196.712976,255.964252 239.612376,249.978761 229.439754,267 Z" id="XMLID_76_" fill="#840508"></path>
                    <g id="XMLID_81_" transform="translate(605.000000, 34.000000)">
                        <rect id="XMLID_75_" fill="#8F0A0F" x="116.688532" y="31.1253561" width="9.90366972" height="405.687892"></rect>
                        <path d="M126.592202,31.1253561 C126.592202,31.1253561 75.3261468,0 22.5454128,0 C22.5454128,7.90584046 22.5454128,7.90584046 22.5454128,7.90584046 C22.5454128,7.90584046 72.4133028,7.90584046 121.640367,37.7861823 C123.504587,34.8603989 126.592202,31.1253561 126.592202,31.1253561 Z" id="XMLID_77_" fill="#8F0A0F"></path>
                        <g id="XMLID_80_">
                            <rect id="XMLID_78_" fill="#8F0A0F" x="0" y="0" width="41.537156" height="7.96809117"></rect>
                            <path d="M31.3422018,18.8619658 L10.253211,18.8619658 C4.60229358,18.8619658 0,13.9441595 0,7.90584046 L0,7.90584046 L41.537156,7.90584046 L41.537156,7.90584046 C41.537156,14.0064103 36.9931193,18.8619658 31.3422018,18.8619658 Z" id="XMLID_79_" fill="#C11B22"></path>
                        </g>
                    </g>
                    <rect id="XMLID_82_" x="211" y="188" width="390" height="68"></rect>
                </g>
            </g>
        </g>
    </g>
</svg>