<?xml version="1.0" encoding="UTF-8" standalone="no"?>
<svg width="644px" height="531px" viewBox="0 0 644 531" version="1.1" xmlns="http://www.w3.org/2000/svg" xmlns:xlink="http://www.w3.org/1999/xlink">
    <!-- Generator: Sketch Beta 47 (45292) - http://www.bohemiancoding.com/sketch -->
    <title>Group 20</title>
    <desc>Created with Sketch Beta.</desc>
    <defs>
        <polygon id="path-1" points="0.0325285714 531 759 531 759 0 0.0325285714 0"></polygon>
        <polygon id="path-3" points="0.0324620061 79.7191837 0.0324620061 0.000145109496 177.783587 0.000145109496 177.783587 79.7191837 0.0324620061 79.7191837"></polygon>
        <polygon id="path-5" points="0.0324620061 79.7191837 0.0324620061 0.000145109496 177.783587 0.000145109496 177.783587 79.7191837 0.0324620061 79.7191837"></polygon>
        <polygon id="path-7" points="517 416.985397 517 0.44836965 0.0227610063 0.44836965 0.0227610063 416.985397 517 416.985397"></polygon>
        <filter x="-50.2%" y="-105.0%" width="205.2%" height="286.7%" filterUnits="objectBoundingBox" id="filter-9">
            <feOffset dx="5" dy="-14" in="SourceAlpha" result="shadowOffsetOuter1"></feOffset>
            <feGaussianBlur stdDeviation="35" in="shadowOffsetOuter1" result="shadowBlurOuter1"></feGaussianBlur>
            <feColorMatrix values="0 0 0 0 1   0 0 0 0 0.942518004   0 0 0 0 0.190301452  0 0 0 0.946586277 0" type="matrix" in="shadowBlurOuter1" result="shadowMatrixOuter1"></feColorMatrix>
            <feMerge>
                <feMergeNode in="shadowMatrixOuter1"></feMergeNode>
                <feMergeNode in="SourceGraphic"></feMergeNode>
            </feMerge>
        </filter>
    </defs>
    <g id="Text-Styles" stroke="none" stroke-width="1" fill="none" fill-rule="evenodd">
        <g id="Luggage-landing" transform="translate(-636.000000, -3322.000000)">
            <g id="Group-32" transform="translate(100.000000, 3322.000000)">
                <g id="Group-20" transform="translate(536.000000, 0.000000)">
                    <g id="Escalator-Airport-Free-Vector">
                        <g id="Group-5">
                            <mask id="mask-2" fill="white">
                                <use xlink:href="#path-1"></use>
                            </mask>
                            <g id="Clip-2"></g>
                            <polygon id="Fill-1" fill="#99BFCB" mask="url(#mask-2)" points="0.0325285714 531 759 531 759 0 0.0325285714 0"></polygon>
                            <polyline id="Fill-3" fill="#A6C5CA" mask="url(#mask-2)" points="-146.296708 429.318377 -95.7006836 429.318377 67.463715 0 16.8617271 0 -146.296708 429.318377"></polyline>
                            <polyline id="Fill-4" fill="#A6C5CA" mask="url(#mask-2)" points="-65.9983029 429.318377 -15.4017364 429.318377 147.76212 0 97.1660957 0 -65.9983029 429.318377"></polyline>
                        </g>
                        <polyline id="Fill-6" fill="#A6C5CA" points="197 429 247.420572 429 410 0 359.579428 0 197 429"></polyline>
                        <polyline id="Fill-7" fill="#A6C5CA" points="277 429 327.416036 429 490 0 439.578022 0 277 429"></polyline>
                        <polyline id="Fill-8" fill="#A6C5CA" points="447 429 497.416704 429 660 0 609.576273 0 447 429"></polyline>
                        <polyline id="Fill-9" fill="#A6C5CA" points="528 429 578.415055 429 741 0 690.586566 0 528 429"></polyline>
                        <path d="M94,387.500271 C94,368.999136 79.0051655,354 60.4972834,354 C42.0002676,354 27,368.999136 27,387.500271 C27,406.000864 42.0002676,421 60.4972834,421 C79.0051655,421 94,406.000864 94,387.500271" id="Fill-10" fill="#E9EAE4"></path>
                        <path d="M90,388.000272 C90,371.983419 77.0204255,359 60.9972703,359 C44.984488,359 32,371.983419 32,388.000272 C32,404.016581 44.984488,417 60.9972703,417 C77.0204255,417 90,404.016581 90,388.000272" id="Fill-11" fill="#D4D5CE"></path>
                        <path d="M86,387.000268 C86,372.641839 74.3597809,361 59.9973132,361 C45.6402191,361 34,372.641839 34,387.000268 C34,401.358161 45.6402191,413 59.9973132,413 C74.3597809,413 85.9946264,401.358161 86,387.000268" id="Fill-12" fill="#BABAB3"></path>
                        <path d="M69,387.500262 C69,382.803965 65.190364,379 60.4947293,379 C55.8043654,379 52,382.803965 52,387.500262 C52,392.196035 55.8043654,396 60.4947293,396 C65.190364,396 69,392.196035 69,387.500262" id="Fill-13" fill="#727770"></path>
                        <g id="Group-18" transform="translate(0.000000, 316.000000)">
                            <mask id="mask-4" fill="white">
                                <use xlink:href="#path-3"></use>
                            </mask>
                            <g id="Clip-15"></g>
                            <path d="M67.9537994,72.2029932 C67.9537994,68.0506122 64.6177872,64.6862585 60.5070152,64.6862585 C56.4016535,64.6862585 53.0656413,68.0506122 53.0656413,72.2029932 C53.0656413,76.3548299 56.4016535,79.7191837 60.5070152,79.7191837 C64.6177872,79.7191837 67.9537994,76.3548299 67.9537994,72.2029932" id="Fill-14" fill="#575A56" mask="url(#mask-4)"></path>
                            <path d="M177.783587,53.1488435 L-274.556073,4.23183673 C-275.622991,4.1170068 -276.435082,3.2092517 -276.435082,2.12571429 C-276.435082,0.906122449 -275.422267,-0.0620408163 -274.220091,0.00326530612 L177.783587,25.0253061 L177.783587,53.1488435" id="Fill-16" fill="#FFFFFE" mask="url(#mask-4)"></path>
                            <path d="M177.783587,53.1488435 L-274.556073,4.23183673 C-275.622991,4.1170068 177.783587,38.6193197 177.783587,38.6193197 L177.783587,53.1488435" id="Fill-17" fill="#E9EAE4" mask="url(#mask-4)"></path>
                        </g>
                        <path d="M386,387.500271 C386,368.999136 400.99863,354 419.500272,354 C438.00137,354 453,368.999136 453,387.500271 C453,406.000864 438.00137,421 419.500272,421 C400.99863,421 386,406.000864 386,387.500271" id="Fill-19" fill="#E9EAE4"></path>
                        <path d="M391,388.000272 C391,371.983419 403.984488,359 420.00273,359 C436.020425,359 449,371.983419 449,388.000272 C449,404.016581 436.020425,417 420.00273,417 C403.984488,417 391,404.016581 391,388.000272" id="Fill-20" fill="#D4D5CE"></path>
                        <path d="M393,387.000268 C393,372.641839 404.641422,361 419,361 C433.358041,361 445,372.641839 445,387.000268 C445,401.358161 433.358041,413 419,413 C404.641422,413 393,401.358161 393,387.000268" id="Fill-21" fill="#BABAB3"></path>
                        <path d="M411,387.500262 C411,382.803965 414.803956,379 419.500264,379 C424.190773,379 428,382.803965 428,387.500262 C428,392.196035 424.190773,396 419.500264,396 C414.803956,396 411,392.196035 411,387.500262" id="Fill-22" fill="#727770"></path>
                        <path d="M412,387.500272 C412,383.356985 415.357265,380 419.500273,380 C423.637828,380 427,383.356985 427,387.500272 C427,391.643015 423.637828,395 419.500273,395 C415.357265,395 412,391.643015 412,387.500272" id="Fill-23" fill="#575A56"></path>
                        <path d="M303,368 L756.113972,320.140232 C757.192476,320.027884 758,319.139748 758,318.079629 C758,316.886397 756.986531,315.939158 755.777955,316.003053 L303,340.484294 L303,368" id="Fill-24" fill="#FFFFFE"></path>
                        <path d="M303,369 L756.998079,320.000286 C758.078688,319.885262 303,354.44591 303,354.44591 L303,369" id="Fill-25" fill="#E9EAE4"></path>
                        <path d="M606.497469,352 L606.497469,352 C609.539807,352 612,349.424457 612,346.244703 L612,336 L601,337.229512 L601,346.244703 C601,349.424457 603.460193,352 606.497469,352" id="Fill-26" fill="#BABAB3"></path>
                        <path d="M495.497722,364 L495.497722,364 C498.537616,364 501,361.334114 501,358.048281 L501,347 L490,348.278097 L490,358.048281 C490,361.334114 492.462384,364 495.497722,364" id="Fill-27" fill="#BABAB3"></path>
                        <path d="M186,311 L62.8241446,294.216716 C61.7819312,294.06986 61,293.176262 61,292.119551 C61,290.883469 62.0422134,289.913463 63.2639132,290.006128 L184.713772,299.130152 L186,311" id="Fill-28" fill="#D4D5CE"></path>
                        <path d="M294,311 L417.176398,294.216716 C418.224034,294.06986 419,293.176262 419,292.119551 C419,290.883469 417.957787,289.913463 416.736629,290.006128 L295.28677,299.130152 L294,311" id="Fill-29" fill="#D4D5CE"></path>
                        <path d="M247,251 L235,251 L238.694254,100.309886 C238.725883,99.0243982 239.749605,98 241,98 C242.250923,98 243.274644,99.0243982 243.306273,100.309886 L247,251" id="Fill-30" fill="#D4D5CE"></path>
                        <path d="M277.788516,387 L202.212024,387 C188.840777,387 178,382.279633 178,368.830508 L178,320 L302,320 L302,368.830508 C302,382.279633 291.159223,387 277.788516,387" id="Fill-31" fill="#D4D5CE"></path>
                        <path d="M302,315.5 C302,280.42961 275.09007,252 240,252 C204.90993,252 178,280.42961 178,315.5 C178,350.570927 204.90993,379 240,379 C275.09007,379 302,350.570927 302,315.5" id="Fill-32" fill="#FFFFFE"></path>
                        <path d="M184,343.704584 C193.808064,365.181017 214.791025,380 239.99973,380 C265.208975,380 286.191936,365.181017 296,343.704584 L280.080048,341.169394 C253.525562,336.943535 226.473898,336.943535 199.919412,341.169394 L184,343.704584" id="Fill-33" fill="#E9EAE4"></path>
                        <polyline id="Fill-34" fill="#7C4576" points="239 299 212 299 215.859002 284 239 286.062776 239 299"></polyline>
                        <path d="M189,304 L197.70399,290.178019 C199.269248,287.693399 201.794473,286.00521 204.652037,285.537438 L214,284 L209.54449,299.838829 L189,304" id="Fill-35" fill="#7C4576"></path>
                        <polyline id="Fill-36" fill="#6295A2" points="242 299 269 299 265.141463 284 242 286.062776 242 299"></polyline>
                        <path d="M291,304 L282.295655,290.178019 C280.724983,287.693399 278.199813,286.00521 275.34776,285.537438 L266,284 L270.455958,299.838829 L291,304" id="Fill-37" fill="#6295A2"></path>
                        <path d="M94,387.500271 C94,368.999136 79.0051655,354 60.4972834,354 C42.0002676,354 27,368.999136 27,387.500271 C27,406.000864 42.0002676,421 60.4972834,421 C79.0051655,421 94,406.000864 94,387.500271" id="Fill-38" fill="#D4D5CC"></path>
                        <path d="M90,388.000272 C90,371.983419 77.0204255,359 60.9972703,359 C44.984488,359 32,371.983419 32,388.000272 C32,404.016581 44.984488,417 60.9972703,417 C77.0204255,417 90,404.016581 90,388.000272" id="Fill-39" fill="#BEBEB8"></path>
                        <path d="M86,387.000268 C86,372.641839 74.3597809,361 59.9973132,361 C45.6402191,361 34,372.641839 34,387.000268 C34,401.358161 45.6402191,413 59.9973132,413 C74.3597809,413 85.9946264,401.358161 86,387.000268" id="Fill-40" fill="#A7A9A2"></path>
                        <path d="M69,387.500262 C69,382.803965 65.190364,379 60.4947293,379 C55.8043654,379 52,382.803965 52,387.500262 C52,392.196035 55.8043654,396 60.4947293,396 C65.190364,396 69,392.196035 69,387.500262" id="Fill-41" fill="#60635F"></path>
                        <g id="Group-46" transform="translate(0.000000, 316.000000)">
                            <mask id="mask-6" fill="white">
                                <use xlink:href="#path-5"></use>
                            </mask>
                            <g id="Clip-43"></g>
                            <path d="M67.9537994,72.2029932 C67.9537994,68.0506122 64.6177872,64.6862585 60.5070152,64.6862585 C56.4016535,64.6862585 53.0656413,68.0506122 53.0656413,72.2029932 C53.0656413,76.3548299 56.4016535,79.7191837 60.5070152,79.7191837 C64.6177872,79.7191837 67.9537994,76.3548299 67.9537994,72.2029932" id="Fill-42" fill="#434543" mask="url(#mask-6)"></path>
                            <path d="M177.783587,53.1488435 L-274.556073,4.23183673 C-275.622991,4.1170068 -276.435082,3.2092517 -276.435082,2.12571429 C-276.435082,0.906122449 -275.422267,-0.0620408163 -274.220091,0.00326530612 L177.783587,25.0253061 L177.783587,53.1488435" id="Fill-44" fill="#EDEDE9" mask="url(#mask-6)"></path>
                            <path d="M177.783587,53.1488435 L-274.556073,4.23183673 C-275.622991,4.1170068 177.783587,38.6193197 177.783587,38.6193197 L177.783587,53.1488435" id="Fill-45" fill="#D4D5CC" mask="url(#mask-6)"></path>
                        </g>
                        <path d="M186,311 L62.8241446,294.216716 C61.7819312,294.06986 61,293.176262 61,292.119551 C61,290.883469 62.0422134,289.913463 63.2639132,290.006128 L184.713772,299.130152 L186,311" id="Fill-47" fill="#BEBEB8"></path>
                        <path d="M240,99 C239.453479,99.4244406 239.087583,100.055688 239.070159,100.768683 L235,252 L240,252 L240,99" id="Fill-48" fill="#BEBEB8"></path>
                        <path d="M239,320 L178,320 L178,368.830508 C178,382.279633 188.929965,387 202.411218,387 L239,387 L239,320" id="Fill-49" fill="#BEBEB8"></path>
                        <path d="M239,252 C204.36784,252.8004 178,280.911216 178,315.5 C178,350.088784 204.36784,378.1996 239,379 L239,252" id="Fill-50" fill="#EDEDE9"></path>
                        <path d="M239,338 C225.983776,338.076008 212.967008,339.123837 200.064637,341.159772 L184,343.697363 C193.700883,364.768485 214.237362,379.42668 239,380 L239,338" id="Fill-51" fill="#D4D5CC"></path>
                        <polyline id="Fill-52" fill="#6295A2" points="239 299 212 299 215.859002 284 239 286.062776 239 299"></polyline>
                        <path d="M189,304 L197.70399,290.178019 C199.269248,287.693399 201.794473,286.00521 204.652037,285.537438 L214,284 L209.54449,299.838829 L189,304" id="Fill-53" fill="#6295A2"></path>
                        <polygon id="Fill-54" fill="#52504D" points="237 412 242 412 242 387 237 387"></polygon>
                        <g id="Group-62" transform="translate(0.000000, 25.000000)">
                            <path d="M236.386213,386.818086 L241.487235,386.818086 C242.795426,386.818086 243.869953,387.890365 243.869953,389.207968 L243.869953,401.48881 C243.869953,402.806413 242.795426,403.878692 241.487235,403.878692 L236.386213,403.878692 C235.072601,403.878692 234.003495,402.806413 234.003495,401.48881 L234.003495,389.207968 C234.003495,387.890365 235.072601,386.818086 236.386213,386.818086" id="Fill-55" fill="#363431"></path>
                            <polygon id="Fill-57" fill="#FEEBE1" points="0.0325285714 297.274681 759 297.274681 759 293.964697 0.0325285714 293.964697"></polygon>
                            <polygon id="Fill-58" fill="#76A1AC" points="0.0325285714 298.673517 759 298.673517 759 297.274681 0.0325285714 297.274681"></polygon>
                            <polygon id="Fill-59" fill="#FEEBE1" points="0.0325285714 3.77680429 759 3.77680429 759 0.466820375 0.0325285714 0.466820375"></polygon>
                            <polygon id="Fill-60" fill="#76A1AC" points="0.0325285714 5.17564075 759 5.17564075 759 3.77680429 0.0325285714 3.77680429"></polygon>
                            <polygon id="Fill-61" fill="#6295A2" points="0.0325285714 219.832322 759 219.832322 759 183.326643 0.0325285714 183.326643"></polygon>
                        </g>
                        <polyline id="Fill-63" fill="#76A1AC" points="318.010687 244 332 208 280.994779 208 267 244 318.010687 244"></polyline>
                        <polyline id="Fill-64" fill="#76A1AC" points="399.010687 244 413 208 361.994779 208 348 244 399.010687 244"></polyline>
                        <polygon id="Fill-65" fill="#6295A2" points="285 435 290 435 290 0 285 0"></polygon>
                        <g id="Group-69">
                            <polygon id="Fill-66" fill="#FEEBE1" points="282.700393 434.955646 288.198264 434.955646 288.198264 0 282.700393 0"></polygon>
                            <polygon id="Fill-68" fill="#1F1A41" points="0.0325285714 531 759 531 759 434.955646 0.0325285714 434.955646"></polygon>
                        </g>
                        <polygon id="Fill-70" fill="#6295A2" points="460 435 467 435 467 0 460 0"></polygon>
                        <path d="M424,435 L459,435 L459,244.896162 L424,244.896162 L424,435 Z M424,208.367765 L459,208.367765 L459,0 L424,0 L424,208.367765 Z" id="Fill-71" fill="#DFC9BE"></path>
                        <polygon id="Fill-72" fill="#CCA89C" points="424 244 459 244 459 208 424 208"></polygon>
                        <path d="M424,435 L452,435 L452,244.896162 L424,244.896162 L424,435 Z M424,208.367765 L452,208.367765 L452,0 L424,0 L424,208.367765 Z" id="Fill-73" fill="#ECDBD0"></path>
                        <polygon id="Fill-74" fill="#D5BAAE" points="424 244 452 244 452 208 424 208"></polygon>
                        <polygon id="Stroke-75" stroke="#DFC9BE" stroke-width="0.198" points="424 244 452 244 452 208 424 208"></polygon>
                        <polyline id="Fill-76" fill="#76A1AC" points="55.0056502 244 69 208 17.9888845 208 4 244 55.0056502 244"></polyline>
                        <polyline id="Fill-77" fill="#76A1AC" points="567.003464 244 581 208 529.989431 208 516 244 567.003464 244"></polyline>
                        <polyline id="Fill-78" fill="#76A1AC" points="648.008576 244 662 208 610.991424 208 597 244 648.008576 244"></polyline>
                        <polygon id="Fill-79" fill="#FEEBE1" points="617 435 622 435 622 0 617 0"></polygon>
                        <polygon id="Fill-80" fill="#76A1AC" points="622 435 625 435 625 0 622 0"></polygon>
                        <polygon id="Fill-81" fill="#6295A2" points="137 435 144 435 144 0 137 0"></polygon>
                        <path d="M102,435 L137,435 L137,244.896162 L102,244.896162 L102,435 Z M102,208.367765 L137,208.367765 L137,0 L102,0 L102,208.367765 Z" id="Fill-82" fill="#DFC9BE"></path>
                        <polygon id="Fill-83" fill="#CCA89C" points="102 244 137 244 137 208 102 208"></polygon>
                        <path d="M102,435 L130,435 L130,244.896162 L102,244.896162 L102,435 Z M102,208.367765 L130,208.367765 L130,0 L102,0 L102,208.367765 Z" id="Fill-84" fill="#ECDBD0"></path>
                        <polygon id="Fill-85" fill="#D5BAAE" points="102 244 130 244 130 208 102 208"></polygon>
                        <polygon id="Stroke-86" stroke="#DFC9BE" stroke-width="0.198" points="102 244 130 244 130 208 102 208"></polygon>
                        <g id="Group-91" transform="translate(0.000000, 71.000000)">
                            <polygon id="Fill-87" fill="#DFC9BE" points="0.0325285714 136.739538 759 136.739538 759 80.5717036 0.0325285714 80.5717036"></polygon>
                            <polygon id="Fill-89" fill="#ECDBD0" points="0.0325285714 136.739538 759 136.739538 759 88.2956877 0.0325285714 88.2956877"></polygon>
                            <polygon id="Fill-90" fill="#4A4240" points="0.0325285714 5.8639249 759 5.8639249 759 0.535003953 0.0325285714 0.535003953"></polygon>
                        </g>
                        <polygon id="Fill-92" fill="#6F625F" points="54 152 59 152 59 77 54 77"></polygon>
                        <polygon id="Fill-93" fill="#6F625F" points="161 152 166 152 166 77 161 77"></polygon>
                        <polygon id="Fill-94" fill="#6F625F" points="268 152 273 152 273 77 268 77"></polygon>
                        <polygon id="Fill-95" fill="#6F625F" points="373 152 378 152 378 77 373 77"></polygon>
                        <polygon id="Fill-96" fill="#6F625F" points="480 152 485 152 485 77 480 77"></polygon>
                        <polygon id="Fill-97" fill="#6F625F" points="587 152 592 152 592 77 587 77"></polygon>
                        <g id="Group-105" transform="translate(242.000000, 77.000000)">
                            <mask id="mask-8" fill="white">
                                <use xlink:href="#path-7"></use>
                            </mask>
                            <g id="Clip-99"></g>
                            <path d="M572.368857,157.611938 L444.31652,157.611938 L208.068113,407.569093 L47.3764927,407.569093 C21.3319403,407.569093 0.0227610063,386.213934 0.0227610063,360.112222 L0.0227610063,359.470767 C0.0227610063,333.374463 21.3319403,312.019304 47.3764927,312.019304 L199.946769,312.019304 C205.794722,312.019304 209.461954,310.481109 213.64456,305.87572 L410.207526,89.2839728 C412.23434,87.0491556 415.464235,85.6250817 418.477358,85.6250817 L561.112998,85.6250817 C567.740786,85.6250817 572.368857,89.5554825 572.368857,96.3567471 L572.368857,157.611938" id="Fill-100" fill="#91928E" mask="url(#mask-8)"></path>
                            <path d="M563.524581,157.611938 L563.524581,96.3567471 C563.524581,94.6173541 562.858008,94.4864669 561.112998,94.4864669 L418.477358,94.4864669 C417.957107,94.4864669 417.09544,94.8564125 416.748606,95.2425837 L220.187265,311.834331 C214.442279,318.162887 208.46914,320.88123 199.946769,320.88123 L47.3764927,320.88123 C26.2141761,320.88123 8.86541195,338.262179 8.86541195,359.470767 L8.86541195,360.112222 C8.86541195,381.320809 26.2141761,398.707167 47.3764927,398.707167 L204.264857,398.707167 L219.080647,395.918514 L445.069801,161.477436 L563.524581,157.611938" id="Fill-101" fill="#F0EFEB" mask="url(#mask-8)"></path>
                            <path d="M563.524581,157.611938 L563.524581,116.711864 L436.962547,116.711864 C436.442296,116.711864 435.57521,117.087218 435.228375,117.472848 L238.669744,334.059728 C232.924758,340.388284 226.952161,343.106626 218.429248,343.106626 L65.8595136,343.106626 C44.6966551,343.106626 27.347891,360.492984 27.347891,381.701572 L27.347891,382.343027 C27.347891,386.436767 27.9987474,390.383934 29.1926164,394.096911 C34.6173229,397.032677 40.812652,398.707167 47.3764927,398.707167 L204.264857,398.707167 L219.080647,395.918514 L445.069801,161.477436 L563.524581,157.611938" id="Fill-102" fill="#E5E5E0" mask="url(#mask-8)"></path>
                            <path d="M247.121665,395.918514 L454.613166,163.983763 L572.282149,163.983763 L572.282149,175.808498 L464.790587,175.808498 L249.026002,416.985397 L17.007891,416.985397 L17.007891,410.739051 C17.007891,402.578074 23.6589822,395.918514 31.8020031,395.918514 L247.121665,395.918514" id="Fill-103" fill="#0E100E" mask="url(#mask-8)"></path>
                            <path d="M21.2777474,416.985397 L249.026002,416.985397 L464.790587,175.808498 L572.368857,175.808498 L572.368857,168.262475 L456.515335,168.262475 L249.026002,400.197226 L31.8020031,400.197226 C26.0136625,400.197226 21.2777474,404.937829 21.2777474,410.739051 L21.2777474,416.985397" id="Fill-104" fill="#222B29" mask="url(#mask-8)"></path>
                        </g>
                        <polygon id="Fill-106" fill="#4B575C" points="323 473 460 473 460 468 323 468"></polygon>
                        <polygon id="Stroke-107" stroke="#1B1713" stroke-width="0.567" points="323 473 460 473 460 468 323 468"></polygon>
                        <polyline id="Fill-108" fill="#4B575C" points="460 473 489.168103 473 503 458 460 458 460 473"></polyline>
                        <polyline id="Fill-109" fill="#4B575C" points="473 457 502.59257 457 517 441 473 441 473 457"></polyline>
                        <polyline id="Fill-110" fill="#4B575C" points="487 441 516.938563 441 531 426 487 426 487 441"></polyline>
                        <polyline id="Fill-111" fill="#4B575C" points="502 425 531.876725 425 546 410 502 410 502 425"></polyline>
                        <polyline id="Fill-112" fill="#4B575C" points="515 409 544.811386 409 559 394 515 394 515 409"></polyline>
                        <polyline id="Fill-113" fill="#4B575C" points="530 394 559.071941 394 573 379 530 379 530 394"></polyline>
                        <polyline id="Fill-114" fill="#4B575C" points="544 378 573.011529 378 587 363 544 363 544 378"></polyline>
                        <polyline id="Fill-115" fill="#4B575C" points="559 362 587.948137 362 602 347 559 347 559 362"></polyline>
                        <polyline id="Fill-116" fill="#4B575C" points="573 346 601.880516 346 616 331 573 331 573 346"></polyline>
                        <polyline id="Fill-117" fill="#4B575C" points="587 331 615.823275 331 630 316 587 316 587 331"></polyline>
                        <polyline id="Fill-118" fill="#4B575C" points="602 315 630.748979 315 645 300 602 300 602 315"></polyline>
                        <polyline id="Fill-119" fill="#4B575C" points="616 299 644.681369 299 659 284 616 284 616 299"></polyline>
                        <polyline id="Fill-120" fill="#4B575C" points="630 284 657.954914 284 672 269 630 269 630 284"></polyline>
                        <polygon id="Fill-125" fill="#3F494D" points="326 475 459 475 459 473 326 473"></polygon>
                        <polygon id="Stroke-126" stroke="#1B1713" stroke-width="0.567" points="326 475 459 475 459 473 326 473"></polygon>
                        <polygon id="Fill-127" fill="#3F494D" points="460 475 463 475 463 473 460 473"></polygon>
                        <polyline id="Fill-128" fill="#3F494D" points="464 473 489.481298 473 500 462 464 462 464 473"></polyline>
                        <polyline id="Fill-129" fill="#3F494D" points="499.692443 461 503 458 477 458 477 461 499.692443 461"></polyline>
                        <polyline id="Fill-130" fill="#3F494D" points="477 458 502.900705 458 514 446 477 446 477 458"></polyline>
                        <polyline id="Fill-131" fill="#3F494D" points="513.619576 444 517 441 490 441 490 444 513.619576 444"></polyline>
                        <polyline id="Fill-132" fill="#3F494D" points="490 441 516.243551 441 527 429 490 429 490 441"></polyline>
                        <polyline id="Fill-133" fill="#3F494D" points="528.604817 429 532 426 505 426 505 429 528.604817 429"></polyline>
                        <polyline id="Fill-134" fill="#3F494D" points="505 426 531.188629 426 542 414 505 414 505 426"></polyline>
                        <polyline id="Fill-135" fill="#3F494D" points="542.700908 413 546 410 520 410 520 413 542.700908 413"></polyline>
                        <polyline id="Fill-136" fill="#3F494D" points="520 410 545.423026 410 556 398 520 398 520 410"></polyline>
                        <polyline id="Fill-137" fill="#3F494D" points="556.678052 397 560 394 534 394 534 397 556.678052 397"></polyline>
                        <polyline id="Fill-138" fill="#3F494D" points="534 394 559.366795 394 570 382 534 382 534 394"></polyline>
                        <polyline id="Fill-139" fill="#3F494D" points="570.647121 382 574 379 548 379 548 382 570.647121 382"></polyline>
                        <polyline id="Fill-140" fill="#3F494D" points="548 379 573.308048 379 584 367 548 367 548 379"></polyline>
                        <polyline id="Fill-141" fill="#3F494D" points="583.761935 366 587 363 562 363 562 366 583.761935 366"></polyline>
                        <polyline id="Fill-142" fill="#3F494D" points="562 363 587.251876 363 598 351 562 351 562 363"></polyline>
                        <polyline id="Fill-143" fill="#3F494D" points="598.730686 350 602 347 577 347 577 350 598.730686 350"></polyline>
                        <polyline id="Fill-144" fill="#3F494D" points="577 347 602.191849 347 613 335 577 335 577 347"></polyline>
                        <polyline id="Fill-145" fill="#3F494D" points="612.705089 334 616 331 591 331 591 334 612.705089 334"></polyline>
                        <polyline id="Fill-146" fill="#3F494D" points="591 331 616.132797 331 627 319 591 319 591 331"></polyline>
                        <polyline id="Fill-147" fill="#3F494D" points="626.683841 319 630 316 605 316 605 319 626.683841 319"></polyline>
                        <polyline id="Fill-148" fill="#3F494D" points="605 316 630.071429 316 641 304 605 304 605 316"></polyline>
                        <polyline id="Fill-149" fill="#3F494D" points="639.786567 303 643 300 619 300 619 303 639.786567 303"></polyline>
                        <polyline id="Fill-150" fill="#3F494D" points="619 299 643.312567 299 654 287 619 287 619 299"></polyline>
                        <polyline id="Fill-151" fill="#3F494D" points="654.76008 287 658 284 634 284 634 287 654.76008 287"></polyline>
                        <polyline id="Fill-152" fill="#3F494D" points="634 284 658.256944 284 669 272 634 272 634 284"></polyline>
                    </g>
                    <g id="Group-2" filter="url(#filter-9)" transform="translate(122.000000, 377.000000)">
                        <path d="M148.313768,8.6575823 C148.313768,8.6575823 151.907104,9.64051538 154.574394,14.3615084 L155.497906,18 L164.328276,18 L167,14.5193605 C167,14.5193605 160.425203,0 141.223375,0 C122.021548,0 138.75941,7.56779547 138.75941,7.56779547 L148.313768,8.6575823" id="Fill-26" fill="#1F2421"></path>
                        <path d="M84,8.58438031 C84,8.58438031 89.8532624,10.1748727 92.3762096,17 L106,17 C106,17 102.367155,9.73344652 93.688416,5 L84,8.58438031" id="Fill-27" fill="#1F2421"></path>
                        <path d="M179.556665,70.0448789 C179.556665,26.5694889 197,19.2333024 197,19.2333024 C197,19.2333024 188.322319,15.6841485 167.552466,14.8157318 C143.489639,16.5741329 130.549382,28.6786822 130.549382,28.6786822 L124.678609,27.597126 L134.696138,14.6127418 C128.32664,13.864216 116.237633,12.7680699 101.875251,13.0433751 C79.8199803,17.4121012 69.6822011,30.7745543 69.6822011,30.7745543 L61.4253982,32.9459133 L71.2764741,15.4849646 C65.7734157,14.790358 44.3326897,12.5048172 22.5729826,15.8744517 C22.5729826,15.8744517 0,33.150172 0,62.3572658 C0,91.5630908 19.7002532,106.989065 19.7002532,106.989065 C19.7002532,106.989065 34.4746519,111.308312 57.0476345,109.456662 C57.0476345,109.456662 61.9734889,111.407269 71.4125475,109.91783 C71.4125475,109.91783 89.6761195,116.244141 120.456539,113.159327 C120.456539,113.159327 128.04943,117.683467 138.515051,115.833086 C138.515051,115.833086 167.860688,123.442675 194.947508,118.095157 C194.947508,118.095157 179.556665,108.222863 179.556665,70.0448789" id="Fill-28" fill="#DD7154"></path>
                        <path d="M69.1649768,31.818008 C69.1649768,31.818008 79.1900113,18.3901195 101,14 C91.9807235,14.1752988 82.0577043,14.9051793 72.0933784,16.6377689 C72.0933784,16.6377689 71.6120916,16.5650996 70.7415196,16.4535458 L61,34 L69.1649768,31.818008" id="Fill-29" fill="#C66144"></path>
                        <path d="M130.888046,29 C130.888046,29 143.866375,16.9521963 168,15.2020384 C160.332083,14.8844593 151.036004,14.9254983 139.907369,15.641472 C139.907369,15.641472 138.152254,15.3611437 135.047002,15 L125,27.923514 L130.888046,29" id="Fill-30" fill="#C66144"></path>
                        <path d="M196.515729,19 C196.515729,19 179,26.3464379 179,69.8825786 C179,108.113912 194.454719,118 194.454719,118 C194.454719,118 213,110.997222 213,71.7272873 C213,32.4560825 200.911026,23.3938877 196.515729,19" id="Fill-31" fill="#C66144"></path>
                        <path d="M25,26.5523405 C25,26.5523405 25.1431267,26.5069924 25.4198807,26.4194453 C25.6979012,26.3344176 26.109549,26.2134892 26.6554572,26.0982294 C27.7434738,25.8450357 29.3539664,25.5458641 31.4096718,25.3657312 C33.4685438,25.1591453 35.9726286,25.1496978 38.8440298,25.053333 C40.2803638,24.9928689 41.8078935,25.0161728 43.4183861,25.0054656 C45.029512,25.0029462 46.7229674,24.9903495 48.4898861,25.0149131 C50.2555382,25.0772668 52.0940203,25.1433995 53.9977328,25.210162 C55.8995453,25.2958195 57.8710213,25.3040074 59.8887285,25.4759524 C61.9064356,25.6151459 63.9805069,25.7581185 66.0995428,25.9054999 C67.1590607,25.9779309 68.2299781,26.0522514 69.312295,26.126572 C70.3914453,26.2273456 71.4807286,26.3300087 72.5782447,26.432042 C74.775177,26.6436666 77.0082076,26.8584403 79.2684703,27.0751036 C80.3925853,27.1815457 81.5242999,27.2898773 82.6610809,27.398209 C83.8029284,27.4958334 84.9498423,27.5940877 86.1018226,27.6917121 C87.2525364,27.7786293 88.413383,27.9146737 89.5666299,27.9612815 C90.7205102,28.0141877 91.877557,28.066464 93.0377703,28.1193701 C95.3524971,28.2623427 97.6969893,28.2188841 100.031349,28.2547846 C102.368241,28.2705305 104.7064,28.1653481 107.03506,28.1225193 C109.363086,27.9921434 111.680979,27.9159334 113.981774,27.7439884 C118.582095,27.4422974 123.107687,27.0373135 127.497752,26.6550036 C131.884017,26.2726937 136.140454,25.9426601 140.184102,25.6963946 C142.210042,25.6107371 144.176451,25.469654 146.085863,25.4394219 C147.996542,25.4243059 149.839457,25.3600627 151.611443,25.3884053 C153.384061,25.4243059 155.081316,25.4589468 156.696242,25.4916982 C158.309268,25.5874332 159.839964,25.6756101 161.277565,25.7606378 C162.715798,25.8242512 164.056503,25.9854889 165.29398,26.1297212 C166.533356,26.263876 167.666337,26.4263735 168.68849,26.5806831 C172.753037,27.3906509 175,28.1867625 175,28.1867625 C175,28.1861326 172.595344,28.3284754 168.520665,27.9946628 C166.468126,27.955613 164.003939,27.6677784 161.162937,27.5185075 C159.743068,27.4530046 158.230738,27.3837228 156.636078,27.3106619 C155.040785,27.2980652 153.361895,27.2854685 151.610809,27.272242 C148.10737,27.3037337 144.313245,27.4454466 140.297463,27.6520325 C138.289255,27.7849277 136.226584,27.9216019 134.118314,28.0620551 C132.008778,28.2302211 129.851743,28.4021661 127.658611,28.57789 C123.27108,28.9299678 118.727755,29.3047197 114.097035,29.5761786 C111.784841,29.7336374 109.443516,29.7941015 107.097757,29.9087315 C104.747565,29.9358144 102.389773,30.025251 100.028815,29.9931294 C97.6678573,29.9408531 95.3113323,29.967936 92.9535408,29.8066982 C91.7762283,29.7462341 90.6008157,29.6857699 89.4292029,29.6271952 C88.2563235,29.5723996 87.1100429,29.4313165 85.9555294,29.3387308 C81.3514078,28.9249292 76.819483,28.5174259 72.4344847,28.123779 C71.340135,28.028044 70.2546516,27.9341986 69.1799344,27.8403532 C68.1020506,27.7805188 67.0342998,27.7206845 65.979215,27.66148 C63.8677787,27.5437009 61.8025737,27.4278112 59.7911996,27.3150707 C55.7703512,27.111634 51.9635597,27.0461312 48.4525212,26.9182747 C44.9408494,26.9195343 41.7204975,26.7935673 38.8674621,26.8307276 C36.0156933,26.8691475 33.529341,26.9018989 31.4818685,26.9296117 C29.4286963,26.905678 27.8182037,26.8212801 26.7099213,26.733733 C25.6003724,26.6367384 25,26.5523405 25,26.5523405" id="Fill-32" fill="#C66144"></path>
                        <path d="M137.812429,0 C128.490267,0 125.006463,3.38096252 103.186084,2.45893928 C81.3644415,1.53628409 69.9929465,11.7821804 69.9929465,11.7821804 C63.6414658,17.9292126 59.7488062,24.0762449 59.7488062,24.0762449 C53.8068131,34.5256309 47.728324,32.4774627 44.4498958,65.261424 C41.1720995,98.0453852 56.8798656,109.519803 56.8798656,109.519803 C64.307515,112.524752 71.2226731,109.979235 71.2226731,109.979235 C71.2226731,109.979235 59.3386867,95.3823242 59.3386867,73.4566243 C59.3386867,51.5328203 63.2319782,44.360756 70.6071779,28.7887378 C77.006053,15.2819506 84.7863168,11.3341239 86.7389658,10.5233248 C86.8988429,10.4677127 87.0549284,10.4089409 87.2046947,10.3476412 C92.4294527,8.19583231 94.5798944,7.37618589 103.083713,8.29757717 C111.586267,9.22023236 121.317916,8.40058593 126.543306,8.29757717 C131.768064,8.19583231 125.76035,14.193723 125.76035,14.193723 L125.76667,14.193723 C123.908809,16.1218196 121.941626,18.5188272 120.191193,21.41192 C114.864695,30.2232771 109.537565,53.5816204 109.537565,75.0965491 C109.537565,106.241217 120.191193,113.208528 120.191193,113.208528 C128.872582,119.717039 138.221916,115.872221 138.221916,115.872221 C138.221916,115.872221 131.665692,111.568603 126.953425,94.9715531 C122.240527,78.3751348 128.592007,56.0405596 128.592007,37.8042166 C128.592007,19.5678735 149.901159,8.29757717 149.901159,8.29757717 C160.965538,2.45893928 147.135222,0 137.812429,0" id="Fill-33" fill="#353B39"></path>
                        <path d="M52.8275607,60 L50.41364,60 L50.1622298,61.5204824 C43.9197274,65.4228418 39,70.8291428 39,70.8291428 C41.9409888,76.3766769 46.0720284,79.8718779 48.5746446,81.6264764 L48.3455678,83 L50.7588504,83 C59.3444447,77.7393854 64,71.6542749 64,71.6542749 C59.6551979,64.8470943 52.8275607,60 52.8275607,60" id="Fill-34" fill="#D2C3AE"></path>
                        <path d="M120.933249,59 L118.635312,59 L118.044275,60.7254309 C111.307791,65.1353585 106,71.2421923 106,71.2421923 C109.105829,77.3769169 113.452654,81.3000219 116.17033,83.3252798 L116.401156,85 L118.699701,85 C127.972845,79.0535388 133,72.1746349 133,72.1746349 C128.308151,64.479923 120.933249,59 120.933249,59" id="Fill-35" fill="#D2C3AE"></path>
                        <path d="M38,70.8291428 C38,70.8291428 44.3796932,63.8158382 51.8275607,60 C51.8275607,60 58.6545598,64.8470943 63,71.6542749 C63,71.6542749 58.3444447,77.7393854 49.7594885,83 C49.7594885,83 42.482631,79.2865876 38,70.8291428" id="Fill-36" fill="#DFCFBD"></path>
                        <path d="M103,71.2421923 C103,71.2421923 109.890011,63.3135773 117.933521,59 C117.933521,59 125.308256,64.479923 130,72.1746349 C130,72.1746349 124.972958,79.0535388 115.699415,85 C115.699415,85 107.84117,80.8017895 103,71.2421923" id="Fill-37" fill="#DFCFBD"></path>
                        <path d="M46,69.3883442 C46,69.3883442 49.9993391,66.2645698 58,69.3883442 C58,69.3883442 51.9279577,73.0145698 46,69.3883442" id="Fill-38" fill="#353B39"></path>
                        <path d="M46,74.3883442 C46,74.3883442 50.0004406,71.2645698 58,74.3883442 C58,74.3883442 51.928953,78.0145698 46,74.3883442" id="Fill-39" fill="#353B39"></path>
                        <path d="M111,69.3878001 C111,69.3878001 115.666667,66.2652499 125,69.3878001 C125,69.3878001 117.916459,73.0152499 111,69.3878001" id="Fill-40" fill="#353B39"></path>
                        <path d="M111,75.388122 C111,75.388122 115.665803,72.2648475 125,75.388122 C125,75.388122 117.915491,79.0148475 111,75.388122" id="Fill-41" fill="#353B39"></path>
                        <path d="M77.8532494,57.065993 C77.8532494,57.065993 74.7246338,64.7231968 76.5974181,76.4708006 C76.5974181,76.4708006 84.6531314,76.2616112 93.5225161,77 C93.5225161,77 92.1948186,68.103847 94,58.0608879 C94,58.0608879 86.8535768,56.6874598 77.8532494,57.065993" id="Fill-42" fill="#DFCFBD"></path>
                        <path d="M195,30 C195,30 178.909777,60.1810979 192.367488,100 C192.367488,100 183.298072,62.708294 195,30" id="Fill-43" fill="#BD553F"></path>
                        <path d="M200,108 C200,108 216.089537,77.8199752 202.633373,38 C202.633373,38 211.701746,75.2920821 200,108" id="Fill-44" fill="#BD553F"></path>
                        <path d="M73,57 C73,57 72.7842385,58.4662311 72.5349466,60.6194817 C72.4744459,61.1555842 72.4110296,61.7390457 72.3432396,62.3540797 C72.2900282,62.9684823 72.2331721,63.6169833 72.1748582,64.2875851 C72.129665,64.9575555 72.0822849,65.6489952 72.0349049,66.3511696 C71.9736753,67.0533439 71.9700306,67.7681474 71.9445183,68.4810564 C71.8891201,69.194597 71.9153614,69.9081375 71.9015118,70.6122062 C71.8862044,71.316275 71.9124457,72.0070832 71.9153614,72.6789479 C71.9204638,73.3508127 71.9649282,73.9980507 71.9795067,74.616242 C71.9948141,75.2350648 72.0349049,75.8191577 72.0713511,76.359049 C72.1180022,76.8976774 72.1107129,77.400313 72.1551773,77.8404349 C72.2025573,78.2799253 72.2229672,78.6676367 72.2462928,78.9877828 C72.2849257,79.6274434 72.291486,80 72.291486,80 C72.291486,80 72.129665,79.6596475 71.8745416,79.0540852 C71.6194183,78.448523 71.2651613,77.576488 70.9859835,76.4973369 C70.8343673,75.9599714 70.6550521,75.3771414 70.5573763,74.7494784 C70.4531402,74.1230782 70.2767406,73.464474 70.224987,72.7736657 C70.1688599,72.0841204 70.0456718,71.3718427 70.0354668,70.6437788 C70.0259908,69.9169778 69.9786108,69.1769163 70.0114123,68.4374863 C70.0347379,67.6986877 70.0828469,66.961152 70.1622996,66.2362453 C70.2125953,65.5094443 70.3503619,64.8015869 70.4669897,64.1170931 C70.5704969,63.4300736 70.7527279,62.7771524 70.8999705,62.1570668 C71.0727254,61.5395069 71.2309019,60.9560455 71.4298981,60.4281518 C72.148617,58.2988963 73,57 73,57" id="Fill-45" fill="#C66144"></path>
                        <path d="M96.5253046,79 C96.5253046,79 95.9277968,77.4095271 95.5183547,74.9363067 C95.4107894,74.3189562 95.3087759,73.6481445 95.237297,72.9353275 C95.1422232,72.223147 95.0908695,71.470234 95.0533951,70.6886811 C94.9902439,69.9084011 94.9999595,69.0994811 95.0013474,68.2778322 C95.0200846,67.4574562 95.0381278,66.6205327 95.1061368,65.7867913 C95.1991287,64.9536865 95.2546463,64.1193087 95.3774789,63.3027514 C95.5294582,62.4881034 95.625226,61.6823656 95.8181496,60.914178 C96.0027455,60.1459904 96.1609705,59.4026241 96.3948383,58.7120826 C96.6148266,58.018359 96.8181597,57.3653677 97.062437,56.7760208 C97.3018565,56.1866738 97.5489097,55.6552433 97.7557126,55.1842749 C97.9659854,54.7145795 98.224142,54.329531 98.3997163,54.0023989 C98.7758478,53.3576814 99,53 99,53 C99,53 98.9070081,53.4117791 98.7251881,54.1163223 C98.6370539,54.4682757 98.5093635,54.8876922 98.3983284,55.3771174 C98.292845,55.8697249 98.1894436,56.4259767 98.0457919,57.0210516 C97.9007522,57.6161265 97.8438467,58.2843924 97.700195,58.967933 C97.5489097,59.6508372 97.5121293,60.3942035 97.3899906,61.1445706 C97.2588304,61.8943014 97.2248259,62.685401 97.1359978,63.4784099 C97.039536,64.2726917 97.0041435,65.0860668 96.9347466,65.8949868 C96.8910265,66.7064526 96.8480004,67.5191912 96.8056683,68.3179281 C96.7779095,69.1192108 96.7508447,69.9096739 96.7237798,70.67277 C96.6869995,72.205963 96.6536889,73.6385979 96.6238482,74.8656614 C96.5808221,77.3286987 96.5253046,79 96.5253046,79" id="Fill-46" fill="#C66144"></path>
                        <path d="M12,47 C12,47 19.7419042,49.7012505 21.2346222,59.3679621 C22.7285967,69.03655 34,67.2565642 34,67.2565642 C34,67.2565642 25.2403335,70.0841524 21.1667714,64.7104214 C17.092581,59.3360649 20.9632189,55.5509369 12,47" id="Fill-47" fill="#C66144"></path>
                        <path d="M141,76 C141,76 144.26544,65.9865285 153.040837,63.6679793 C161.816234,61.3494301 166,55 166,55 C166,55 163.346358,61.8872539 156.50958,64.7430052 C149.672801,67.5993782 144.979833,69.3819689 141,76" id="Fill-48" fill="#C66144"></path>
                        <path d="M150,89.025797 C150,89.025797 161.617125,87.8718258 167,101 C167,101 161.191765,93.9313425 150,89.025797" id="Fill-49" fill="#C66144"></path>
                        <path d="M86.6704338,67.6841394 C86.6704338,67.6841394 86.6083472,67.586512 86.5284394,67.4018114 C86.4548552,67.2283248 86.3479282,66.9730423 86.2111077,66.648497 C86.0852098,66.3391236 85.9397661,65.9756593 85.7874239,65.5699778 C85.6396807,65.1636366 85.4373243,64.7249727 85.1625334,64.3080772 C84.8888923,63.892501 84.5336188,63.5033105 84.1139592,63.236814 C83.7092463,62.9736157 83.1912828,62.8232167 82.7739227,62.8693919 C82.3743837,62.9083109 82.3082729,62.9531668 82.038656,63.0692642 C81.8098552,63.1794249 81.5902525,63.3324625 81.388471,63.530356 C80.9895069,63.9254832 80.6319338,64.4413255 80.3910607,65.0462198 C80.1473132,65.6478159 79.9794493,66.3081203 79.9196622,66.9783195 C79.8478027,67.6293889 79.8719475,68.3688507 79.9737006,68.9539557 C80.1582358,70.2316877 80.7290879,71.2594144 81.3183361,71.9296135 C81.6195712,72.2620745 81.9328788,72.5298903 82.2542346,72.7027172 C82.4151999,72.7897903 82.5738658,72.8682881 82.7302321,72.9184211 L82.7882946,72.940849 L82.7951931,72.9434876 L82.7992172,72.9448069 C82.7785217,72.9461262 82.8503812,72.9421683 82.753802,72.9494244 L82.7704734,72.9514033 L82.804966,72.9553612 L82.9371875,72.9744909 C83.0239939,72.9890031 83.106776,73.0035153 83.1849592,73.0186871 C83.5143633,73.0958655 83.696599,73.0602447 83.8742358,73.0740973 C84.049573,73.0813534 84.142703,73.0846516 84.142703,73.0846516 C84.142703,73.0846516 84.0714183,73.1545739 83.9368973,73.2871625 C83.8012265,73.4026004 83.5494307,73.6493075 83.2585434,73.7495736 C83.1849592,73.7832154 83.106776,73.8181766 83.0257185,73.856436 L82.9003955,73.9092076 L82.8676275,73.9224005 L82.8526807,73.9283373 L82.7831207,73.9349338 L82.7055124,73.947467 C82.4916585,73.9824282 82.2536597,74.0193683 81.9978398,73.988365 C81.4902241,73.9415302 80.9044252,73.7548507 80.3726647,73.353127 C79.2803998,72.5721075 78.4974184,71.0562437 78.1645651,69.3807459 C78.00245,68.4915447 77.9593342,67.6584133 78.0386672,66.7382087 C78.1300725,65.8384532 78.3399023,64.9281434 78.7164462,64.0897348 C79.0849419,63.2500069 79.6236009,62.4762436 80.3174765,61.9082894 C80.6601028,61.6220035 81.0452699,61.3937664 81.4505576,61.2361113 C81.8133045,61.0777965 82.4117507,60.9880848 82.6669957,61.0012777 C83.5689765,60.9788498 84.3025186,61.3449527 84.9049889,61.8159391 C85.5011355,62.2928623 85.9322927,62.885883 86.2444505,63.4650511 C86.5520093,64.0481772 86.7641386,64.6174506 86.8865873,65.1385701 C87.0096108,65.6610088 87.0153595,66.1346337 86.9837413,66.5198663 C86.9435,66.9189514 86.8722154,67.2019391 86.7934573,67.3899378 C86.725047,67.5818945 86.6704338,67.6841394 86.6704338,67.6841394" id="Fill-50" fill="#353B39"></path>
                    </g>
                </g>
            </g>
        </g>
    </g>
</svg>