<?xml version="1.0" encoding="UTF-8" standalone="no"?>
<svg width="645px" height="535px" viewBox="0 0 645 535" version="1.1" xmlns="http://www.w3.org/2000/svg" xmlns:xlink="http://www.w3.org/1999/xlink">
    <!-- Generator: Sketch Beta 47 (45292) - http://www.bohemiancoding.com/sketch -->
    <title>T_26</title>
    <desc>Created with Sketch Beta.</desc>
    <defs>
        <linearGradient x1="41.2354152%" y1="93.8600252%" x2="64.9886606%" y2="2.52506254%" id="linearGradient-1">
            <stop stop-color="#FFFFFF" offset="0%"></stop>
            <stop stop-color="#E6E6E6" offset="98.68%"></stop>
        </linearGradient>
    </defs>
    <g id="Text-Styles" stroke="none" stroke-width="1" fill="none" fill-rule="evenodd">
        <g id="Luggage-landing" transform="translate(-635.000000, -4462.000000)">
            <g id="Group-32" transform="translate(100.000000, 3322.000000)">
                <g id="T_26" transform="translate(917.000000, 1407.500000) scale(-1, 1) translate(-917.000000, -1407.500000) translate(535.000000, 1140.000000)">
                    <g id="bgr" fill-rule="nonzero" fill="#CBE9FC">
                        <rect id="Rectangle-path" x="0" y="0" width="764" height="532.563562"></rect>
                    </g>
                    <g id="floor" transform="translate(0.000000, 281.000000)">
                        <rect id="Rectangle-path" fill="#8FC7ED" fill-rule="nonzero" x="0" y="128.802581" width="764" height="125.197419"></rect>
                        <rect id="Rectangle-path" fill="#F1F2F2" fill-rule="nonzero" x="0" y="115.310538" width="764" height="13.492043"></rect>
                        <path d="M726.072857,173.266237 L281.370286,173.266237 C278.532571,173.266237 276.240571,175.56043 276.240571,178.40086 L276.240571,178.40086 C276.240571,181.24129 278.532571,183.535484 281.370286,183.535484 L726.072857,183.535484 C728.910571,183.535484 731.202571,181.24129 731.202571,178.40086 L731.202571,178.40086 C731.202571,175.56043 728.910571,173.266237 726.072857,173.266237 Z" id="Shape" fill="#729DBA" fill-rule="nonzero"></path>
                        <g id="Group" transform="translate(344.891429, 0.000000)">
                            <path d="M1.09142857,1.74795699 L3.87457143,22.2864516" id="Shape" stroke="#1E2E34" stroke-width="3.2612" stroke-linecap="round"></path>
                            <path d="M6.16657143,1.47483871 L4.584,22.5595699" id="Shape" stroke="#AE231B" stroke-width="3.2612" stroke-linecap="round"></path>
                            <path d="M15.1708571,0.163870968 L10.696,19.1729032" id="Shape" stroke="#1E2E34" stroke-width="3.2612" stroke-linecap="round"></path>
                            <path d="M9.71371429,2.94967742 L9.71371429,14.5298925" id="Shape" stroke="#2F4148" stroke-width="3.2612" stroke-linecap="round"></path>
                            <polygon id="Shape" fill="#FFFFFF" fill-rule="nonzero" points="0.163714286 8.57591398 1.85542857 31.2993548 13.4791429 31.3539785 15.1708571 8.57591398"></polygon>
                        </g>
                    </g>
                    <g id="clock" transform="translate(432.000000, 89.000000)" fill-rule="nonzero">
                        <polyline id="Shape" fill="url(#linearGradient-1)" points="41.2904762 26.3091667 0.492857143 130.727083 84.4428571 121.393333 112.864286 47.4329167"></polyline>
                        <ellipse id="Oval" fill="#5D2F0D" cx="78.1452381" cy="36.7345833" rx="36.8" ry="36.68"></ellipse>
                        <ellipse id="Oval" fill="#8A461D" cx="75.4071429" cy="36.7345833" rx="36.8" ry="36.68"></ellipse>
                        <ellipse id="Oval" fill="#FFFFFF" cx="75.4071429" cy="36.7345833" rx="32.5833333" ry="32.4770833"></ellipse>
                        <g id="Group" transform="translate(43.809524, 4.912500)" fill="#2F4148">
                            <path d="M31.597619,63.0983333 L31.597619,63.0983333 C31.3785714,63.0983333 31.2142857,62.9345833 31.2142857,62.71625 L31.2142857,59.8779167 C31.2142857,59.6595833 31.3785714,59.4958333 31.597619,59.4958333 L31.597619,59.4958333 C31.8166667,59.4958333 31.9809524,59.6595833 31.9809524,59.8779167 L31.9809524,62.71625 C31.9809524,62.9345833 31.8166667,63.0983333 31.597619,63.0983333 Z" id="Shape"></path>
                            <path d="M31.597619,3.93 L31.597619,3.93 C31.3785714,3.93 31.2142857,3.76625 31.2142857,3.54791667 L31.2142857,0.709583333 C31.2142857,0.49125 31.3785714,0.3275 31.597619,0.3275 L31.597619,0.3275 C31.8166667,0.3275 31.9809524,0.49125 31.9809524,0.709583333 L31.9809524,3.54791667 C31.9809524,3.76625 31.8166667,3.93 31.597619,3.93 Z" id="Shape"></path>
                            <path d="M0.10952381,31.7129167 L0.10952381,31.7129167 C0.10952381,31.4945833 0.273809524,31.3308333 0.492857143,31.3308333 L3.34047619,31.3308333 C3.55952381,31.3308333 3.72380952,31.4945833 3.72380952,31.7129167 L3.72380952,31.7129167 C3.72380952,31.93125 3.55952381,32.095 3.34047619,32.095 L0.492857143,32.095 C0.273809524,32.095 0.10952381,31.8766667 0.10952381,31.7129167 Z" id="Shape"></path>
                            <path d="M59.4714286,31.7129167 L59.4714286,31.7129167 C59.4714286,31.4945833 59.6357143,31.3308333 59.8547619,31.3308333 L62.702381,31.3308333 C62.9214286,31.3308333 63.0857143,31.4945833 63.0857143,31.7129167 L63.0857143,31.7129167 C63.0857143,31.93125 62.9214286,32.095 62.702381,32.095 L59.8547619,32.095 C59.6357143,32.095 59.4714286,31.8766667 59.4714286,31.7129167 Z" id="Shape"></path>
                            <path d="M9.30952381,9.4975 L9.30952381,9.4975 C9.47380952,9.33375 9.69285714,9.33375 9.85714286,9.4975 L11.8833333,11.5170833 C12.047619,11.6808333 12.047619,11.8991667 11.8833333,12.0629167 L11.8833333,12.0629167 C11.7190476,12.2266667 11.5,12.2266667 11.3357143,12.0629167 L9.30952381,10.0433333 C9.1452381,9.87958333 9.1452381,9.60666667 9.30952381,9.4975 Z" id="Shape"></path>
                            <path d="M51.3119048,51.3083333 L51.3119048,51.3083333 C51.4761905,51.1445833 51.6952381,51.1445833 51.8595238,51.3083333 L53.8857143,53.3279167 C54.05,53.4916667 54.05,53.71 53.8857143,53.87375 L53.8857143,53.87375 C53.7214286,54.0375 53.502381,54.0375 53.3380952,53.87375 L51.3119048,51.8541667 C51.147619,51.745 51.147619,51.4720833 51.3119048,51.3083333 Z" id="Shape"></path>
                            <path d="M9.30952381,53.87375 L9.30952381,53.87375 C9.1452381,53.71 9.1452381,53.4916667 9.30952381,53.3279167 L11.3357143,51.3083333 C11.5,51.1445833 11.7190476,51.1445833 11.8833333,51.3083333 L11.8833333,51.3083333 C12.047619,51.4720833 12.047619,51.6904167 11.8833333,51.8541667 L9.85714286,53.87375 C9.74761905,54.0375 9.47380952,54.0375 9.30952381,53.87375 Z" id="Shape"></path>
                            <path d="M51.3119048,12.0629167 L51.3119048,12.0629167 C51.147619,11.8991667 51.147619,11.6808333 51.3119048,11.5170833 L53.3380952,9.4975 C53.502381,9.33375 53.7214286,9.33375 53.8857143,9.4975 L53.8857143,9.4975 C54.05,9.66125 54.05,9.87958333 53.8857143,10.0433333 L51.8595238,12.0629167 C51.6952381,12.2266667 51.4761905,12.2266667 51.3119048,12.0629167 Z" id="Shape"></path>
                        </g>
                        <path d="M75.4071429,42.2475 L75.4071429,42.2475 C74.9690476,42.2475 74.6404762,41.92 74.6404762,41.4833333 L74.6404762,10.97125 C74.6404762,10.5345833 74.9690476,10.2070833 75.4071429,10.2070833 L75.4071429,10.2070833 C75.8452381,10.2070833 76.1738095,10.5345833 76.1738095,10.97125 L76.1738095,41.4833333 C76.1738095,41.8654167 75.8452381,42.2475 75.4071429,42.2475 Z" id="Shape" fill="#2F4148"></path>
                        <path d="M70.0952381,36.7345833 L70.0952381,36.7345833 C70.0952381,36.2979167 70.4238095,35.9704167 70.8619048,35.9704167 L95.6690476,35.9704167 C96.1071429,35.9704167 96.4357143,36.2979167 96.4357143,36.7345833 L96.4357143,36.7345833 C96.4357143,37.17125 96.1071429,37.49875 95.6690476,37.49875 L70.8619048,37.49875 C70.4238095,37.5533333 70.0952381,37.17125 70.0952381,36.7345833 Z" id="Shape" fill="#2F4148"></path>
                    </g>
                    <g id="scanner" transform="translate(13.000000, 211.000000)" fill-rule="nonzero">
                        <g id="Group">
                            <path d="M197.297494,239.375584 L7.67630979,239.375584 C3.59316629,239.375584 0.326651481,242.704034 0.326651481,246.741826 L0.326651481,249.19724 C0.326651481,253.289597 3.6476082,256.563482 7.67630979,256.563482 L197.297494,256.563482 C201.380638,256.563482 204.647153,253.235032 204.647153,249.19724 L204.647153,246.741826 C204.647153,242.704034 201.326196,239.375584 197.297494,239.375584 Z" id="Shape" fill="#729DBA"></path>
                            <ellipse id="Oval" fill="#1E2E34" cx="179.168337" cy="242.813163" rx="12.8482916" ry="12.8772824"></ellipse>
                            <path d="M238.455581,126.099151 L178.297267,148.197877 L181.23713,156.218896 L233.446925,137.066667 C237.802278,135.429724 240.034396,130.518896 238.455581,126.099151 L238.455581,126.099151 Z" id="Shape" fill="#1E2E34"></path>
                            <path d="M207.968109,192.559023 L192.887699,203.30828 L192.887699,147.925053 L212.377904,140.8862 C214.283371,140.176858 216.352164,141.595541 216.352164,143.669002 L216.352164,176.244161 C216.352164,182.737367 213.248975,188.794055 207.968109,192.559023 Z" id="Shape" fill="#2F4148"></path>
                            <rect id="Rectangle-path" fill="#A5A7AA" x="85.9093394" y="46.5437367" width="110.244875" height="196.269427"></rect>
                            <rect id="Rectangle-path" fill="#FFFFFF" x="91.9523918" y="46.5437367" width="104.201822" height="7.20254777"></rect>
                            <rect id="Rectangle-path" fill="#E9E9EA" x="91.9523918" y="53.7462845" width="104.201822" height="48.2352442"></rect>
                            <rect id="Rectangle-path" fill="#E9E9EA" x="91.9523918" y="105.582803" width="104.201822" height="86.1577495"></rect>
                            <rect id="Rectangle-path" fill="#E9E9EA" x="91.9523918" y="195.341826" width="104.201822" height="21.9350318"></rect>
                            <rect id="Rectangle-path" fill="#E9E9EA" x="91.9523918" y="220.878132" width="104.201822" height="21.9350318"></rect>
                            <g transform="translate(123.583144, 82.938429)" id="Rectangle-path">
                                <rect fill="#FFFFFF" x="0.16332574" y="0.381953291" width="49.4332574" height="12.8227176"></rect>
                                <rect fill="#A5A7AA" x="0.16332574" y="0.381953291" width="46.8200456" height="9.87622081"></rect>
                            </g>
                            <g transform="translate(123.583144, 199.707006)" id="Rectangle-path">
                                <rect fill="#FFFFFF" x="0.16332574" y="0.218259023" width="49.4332574" height="12.8227176"></rect>
                                <rect fill="#A5A7AA" x="0.16332574" y="0.218259023" width="46.8200456" height="9.87622081"></rect>
                            </g>
                            <g transform="translate(123.583144, 225.352442)" id="Rectangle-path">
                                <rect fill="#FFFFFF" x="0.16332574" y="0.0545647558" width="49.4332574" height="12.8227176"></rect>
                                <rect fill="#A5A7AA" x="0.16332574" y="0.0545647558" width="46.8200456" height="9.87622081"></rect>
                            </g>
                            <path d="M196.04533,46.5437367 L84.276082,46.5437367 L84.276082,31.7021231 L181.23713,31.7021231 C189.403417,31.7021231 196.04533,38.3590234 196.04533,46.5437367 L196.04533,46.5437367 Z" id="Shape" fill="#2F4148"></path>
                            <path d="M147.973121,46.5437367 L11.977221,46.5437367 L11.977221,19.3704883 C11.977221,8.8940552 20.4157175,0.436518047 30.8685649,0.436518047 L132.348292,0.436518047 C141.004556,0.436518047 148.027563,7.47537155 148.027563,16.1511677 L148.027563,46.5437367 L147.973121,46.5437367 Z" id="Shape" fill="#2F4148"></path>
                            <path d="M168.279954,7.58450106 L76.3820046,8.83949045 L76.3820046,22.3715499 L131.150569,22.3715499 L172.14533,14.0231423 C172.798633,13.9140127 173.397494,13.5320594 173.778588,12.9864119 L173.778588,12.9864119 C173.724146,9.98535032 171.27426,7.58450106 168.279954,7.58450106 Z" id="Shape" fill="#1E2E34"></path>
                            <polygon id="Shape" fill="#435961" points="76.3820046 8.8940552 76.3820046 17.2424628 127.775171 13.859448 136.322551 7.58450106"></polygon>
                            <path d="M168.334396,7.52993631 L132.892711,7.52993631 C130.007289,7.52993631 127.720729,9.87622081 127.720729,12.7135881 L127.720729,13.859448 L173.724146,12.9318471 L173.724146,12.9318471 C173.724146,9.93078556 171.328702,7.52993631 168.334396,7.52993631 Z" id="Shape" fill="#4A616A"></path>
                        </g>
                    </g>
                    <g id="windows" transform="translate(205.000000, 46.000000)">
                        <g id="Group" transform="translate(412.841951, 0.000000)" fill-rule="nonzero">
                            <rect id="Rectangle-path" fill="#FFFFFF" x="12.9797073" y="12.1864789" width="132.960195" height="181.813521"></rect>
                            <polygon id="Shape" fill="#B2DFF9" points="145.939902 20.3290141 21.6510244 20.3290141 21.6510244 185.857465 32.9400976 185.857465 145.939902 30.2749296"></polygon>
                            <polygon id="Shape" fill="#A1DAF8" points="145.939902 30.2749296 32.9400976 185.857465 145.939902 185.857465"></polygon>
                            <g fill="#85B2C9">
                                <rect id="Rectangle-path" x="7.14429268" y="26.3949296" width="138.79561" height="10.4377465"></rect>
                                <path d="M145.939902,0.491830986 L8.61678049,0.491830986 C3.98117073,0.491830986 0.163609756,4.26253521 0.163609756,8.96225352 L0.163609756,8.96225352 C0.163609756,13.6073239 3.92663415,17.4326761 8.61678049,17.4326761 L145.939902,17.4326761 L145.939902,0.491830986 Z" id="Shape"></path>
                                <rect id="Rectangle-path" x="7.14429268" y="51.7515493" width="138.79561" height="10.4377465"></rect>
                                <rect id="Rectangle-path" x="7.14429268" y="77.108169" width="138.79561" height="10.4377465"></rect>
                            </g>
                        </g>
                        <g id="Group">
                            <rect id="Rectangle-path" fill="#FFFFFF" fill-rule="nonzero" x="13.0342439" y="12.1864789" width="150.630049" height="181.813521"></rect>
                            <polygon id="Shape" fill="#B2DFF9" fill-rule="nonzero" points="21.7600976 20.3290141 21.7600976 185.857465 32.9946341 185.857465 153.247805 20.3290141"></polygon>
                            <polygon id="Shape" fill="#A1DAF8" fill-rule="nonzero" points="32.9946341 185.857465 154.992976 185.857465 154.992976 20.3290141 153.247805 20.3290141"></polygon>
                            <g>
                                <rect id="Rectangle-path" fill="#85B2C9" fill-rule="nonzero" x="7.19882927" y="26.3949296" width="163.609756" height="10.4377465"></rect>
                                <path d="M169.390634,17.3780282 L8.67131707,17.3780282 C4.03570732,17.3780282 0.218146341,13.6073239 0.218146341,8.90760563 L0.218146341,8.90760563 C0.218146341,4.26253521 3.98117073,0.437183099 8.67131707,0.437183099 L169.336098,0.437183099 C173.971707,0.437183099 177.789268,4.20788732 177.789268,8.90760563 L177.789268,8.90760563 C177.789268,13.6073239 174.026244,17.3780282 169.390634,17.3780282 Z" id="Shape" fill="#85B2C9" fill-rule="nonzero"></path>
                                <rect id="Rectangle-path" fill="#85B2C9" fill-rule="nonzero" x="7.19882927" y="51.7515493" width="163.609756" height="10.4377465"></rect>
                                <rect id="Rectangle-path" fill="#85B2C9" fill-rule="nonzero" x="7.19882927" y="77.108169" width="163.609756" height="10.4377465"></rect>
                                <path d="M148.666732,26.3949296 L148.666732,168.315493" id="Shape" stroke="#FFFFFF" stroke-width="2.3637"></path>
                                <path d="M148.666732,177.933521 L148.666732,177.933521 C146.648878,177.933521 145.01278,176.294085 145.01278,174.272113 L145.01278,160.719437 C145.01278,158.697465 146.648878,157.058028 148.666732,157.058028 L148.666732,157.058028 C150.684585,157.058028 152.320683,158.697465 152.320683,160.719437 L152.320683,174.272113 C152.320683,176.294085 150.684585,177.933521 148.666732,177.933521 Z" id="Shape" fill="#FFFFFF" fill-rule="nonzero"></path>
                            </g>
                        </g>
                    </g>
                    <g id="chair" transform="translate(495.000000, 242.000000)" fill-rule="nonzero">
                        <path d="M111.545614,118.399532 L55.4736842,118.399532 C48.7298246,118.399532 43.2912281,112.948356 43.2912281,106.188899 L43.2912281,12.4286801 C43.2912281,5.66922251 48.7298246,0.21804702 55.4736842,0.21804702 L111.545614,0.21804702 C118.289474,0.21804702 123.72807,5.66922251 123.72807,12.4286801 L123.72807,106.134387 C123.72807,112.893845 118.289474,118.399532 111.545614,118.399532 Z" id="Shape" fill="#2F4148"></path>
                        <g id="Group" transform="translate(0.000000, 79.587162)">
                            <path d="M9.95263158,44.1000098 L9.95263158,44.1000098 C8.97368421,44.1000098 8.2122807,43.3368452 8.2122807,42.3556336 L8.2122807,7.35908692 C8.2122807,6.37787533 8.97368421,5.61471076 9.95263158,5.61471076 L9.95263158,5.61471076 C10.9315789,5.61471076 11.6929825,6.37787533 11.6929825,7.35908692 L11.6929825,42.3556336 C11.6929825,43.3368452 10.877193,44.1000098 9.95263158,44.1000098 Z" id="Shape" fill="#FFFFFF"></path>
                            <path d="M56.3438596,10.1391864 L0.163157895,10.1391864 L0.163157895,10.1391864 C0.163157895,4.68801093 4.56842105,0.272558775 10.0070175,0.272558775 L46.5,0.272558775 C51.9385965,0.272558775 56.3438596,4.68801093 56.3438596,10.1391864 L56.3438596,10.1391864 Z" id="Shape" fill="#000000"></path>
                        </g>
                        <path d="M116.222807,1.36279387 C111.763158,3.16168179 108.717544,6.92299288 108.717544,11.338445 L108.717544,107.279134 C108.717544,111.640074 111.763158,115.455897 116.222807,117.254785 C120.682456,115.455897 123.72807,111.694586 123.72807,107.279134 L123.72807,11.338445 C123.72807,6.97750463 120.682456,3.16168179 116.222807,1.36279387 Z" id="Shape" fill="#1E2E34"></path>
                        <g id="Group" transform="translate(1.087719, 116.655156)">
                            <rect id="Rectangle-path" fill="#295278" x="67.0035088" y="30.5810945" width="12.6719298" height="50.0963028"></rect>
                            <rect id="Rectangle-path" fill="#000000" x="63.2508772" y="11.9925861" width="20.122807" height="37.2315286"></rect>
                            <ellipse id="Oval" fill="#000000" cx="36.2754386" cy="96.1587357" rx="5.92807018" ry="5.94178129"></ellipse>
                            <path d="M74.5087719,80.5138621 L29.3140351,97.2489708 L29.2596491,97.0309238 C27.5192982,92.2884011 29.9122807,86.9462491 34.6982456,85.201873 L71.3,71.628446 L74.5087719,80.5138621 Z" id="Shape" fill="#295278"></path>
                            <ellipse id="Oval" fill="#000000" cx="110.240351" cy="96.1587357" rx="5.92807018" ry="5.94178129"></ellipse>
                            <path d="M71.6263158,80.5138621 L116.821053,97.2489708 L116.875439,97.0309238 C118.615789,92.2884011 116.222807,86.9462491 111.436842,85.201873 L74.8350877,71.628446 L71.6263158,80.5138621 Z" id="Shape" fill="#295278"></path>
                            <path d="M0.0543859649,8.01322798 L0.0543859649,8.01322798 C0.0543859649,3.81582285 3.42631579,0.43609404 7.61403509,0.43609404 L110.240351,0.43609404 C114.42807,0.43609404 117.8,3.81582285 117.8,8.01322798 L117.8,8.01322798 C117.8,12.2106331 114.42807,15.5903619 110.240351,15.5903619 L7.61403509,15.5903619 C3.42631579,15.5903619 0.0543859649,12.2106331 0.0543859649,8.01322798 Z" id="Shape" fill="#2F4148"></path>
                            <path d="M117.8,8.01322798 L117.8,8.01322798 C117.8,3.81582285 114.42807,0.43609404 110.240351,0.43609404 L49.7631579,0.43609404 C45.5754386,0.43609404 42.2035088,3.81582285 42.2035088,8.01322798 L42.2035088,8.01322798 C42.2035088,12.2106331 45.5754386,15.5903619 49.7631579,15.5903619 L110.240351,15.5903619 C114.42807,15.5903619 117.8,12.2106331 117.8,8.01322798 Z" id="Shape" fill="#1E2E34"></path>
                        </g>
                        <g id="Group" transform="translate(64.175439, 79.587162)">
                            <path d="M10.0070175,44.1000098 L10.0070175,44.1000098 C9.02807018,44.1000098 8.26666667,43.3368452 8.26666667,42.3556336 L8.26666667,7.35908692 C8.26666667,6.37787533 9.02807018,5.61471076 10.0070175,5.61471076 L10.0070175,5.61471076 C10.9859649,5.61471076 11.7473684,6.37787533 11.7473684,7.35908692 L11.7473684,42.3556336 C11.7473684,43.3368452 10.9315789,44.1000098 10.0070175,44.1000098 Z" id="Shape" fill="#FFFFFF"></path>
                            <path d="M56.3982456,10.1391864 L0.21754386,10.1391864 L0.21754386,10.1391864 C0.21754386,4.68801093 4.62280702,0.272558775 10.0614035,0.272558775 L46.554386,0.272558775 C51.9929825,0.272558775 56.3982456,4.68801093 56.3982456,10.1391864 L56.3982456,10.1391864 Z" id="Shape" fill="#000000"></path>
                        </g>
                    </g>
                    <g id="desk" transform="translate(292.000000, 312.000000)" fill-rule="nonzero">
                        <rect id="Rectangle-path" fill="#8A461D" x="172.8" y="0.0545787546" width="228.981818" height="10.4245421"></rect>
                        <rect id="Rectangle-path" fill="#BA5D2B" x="0.218181818" y="0.0545787546" width="280.090909" height="10.4245421"></rect>
                        <rect id="Rectangle-path" fill="#5D2F0D" x="11.4545455" y="10.4791209" width="260.018182" height="128.478388"></rect>
                        <rect id="Rectangle-path" fill="#8A461D" x="20.8909091" y="138.957509" width="11.1272727" height="9.55128205"></rect>
                        <rect id="Rectangle-path" fill="#8A461D" x="250.745455" y="138.957509" width="11.1272727" height="9.55128205"></rect>
                        <rect id="Rectangle-path" fill="#8A461D" x="375" y="138.957509" width="11.1272727" height="9.55128205"></rect>
                        <rect id="Rectangle-path" fill="#5D2F0D" x="271.472727" y="10.4791209" width="122.509091" height="128.478388"></rect>
                        <path d="M271.472727,138.957509 L393.981818,138.957509 L393.981818,35.6399267 C393.981818,28.5992674 388.254545,22.8684982 381.218182,22.8684982 L284.236364,22.8684982 C277.2,22.8684982 271.472727,28.5992674 271.472727,35.6399267 L271.472727,138.957509 L271.472727,138.957509 Z" id="Shape" fill="#8A461D"></path>
                    </g>
                    <g id="laptop" transform="translate(392.000000, 247.000000)" fill-rule="nonzero">
                        <path d="M86.1376518,60.445 L14.3198381,60.445 C12.1882591,60.445 10.3299595,58.905 9.94736842,56.815 L0.273279352,5.555 C-0.273279352,2.805 1.8582996,0.275 4.64574899,0.275 L76.4635628,0.275 C78.5951417,0.275 80.4534413,1.815 80.8360324,3.905 L90.5101215,55.165 C91.0020243,57.86 88.9251012,60.445 86.1376518,60.445 Z" id="Shape" fill="#FFFFFF"></path>
                        <path d="M80.8360324,3.85 C80.6174089,2.695 79.9615385,1.705 79.0870445,1.045 C77.7206478,2.035 76.9554656,3.74 77.3380567,5.5 L87.0121457,56.76 C87.2307692,57.915 87.8866397,58.905 88.7611336,59.565 C90.1275304,58.575 90.8927126,56.87 90.5101215,55.11 L80.8360324,3.85 Z" id="Shape" fill="#C4C4C4"></path>
                        <path d="M129.753036,65.505 L19.402834,65.505 C16.6153846,65.505 14.3744939,63.25 14.3744939,60.445 L14.3744939,60.445 L134.836032,60.445 L134.836032,60.445 C134.836032,63.25 132.540486,65.505 129.753036,65.505 Z" id="Shape" fill="#FFFFFF"></path>
                        <path d="M134.836032,60.445 L88.3785425,60.445 C88.3785425,63.25 90.9473684,65.505 94.1174089,65.505 L129.097166,65.505 C132.267206,65.505 134.836032,63.25 134.836032,60.445 Z" id="Shape" fill="#C4C4C4"></path>
                        <ellipse id="Oval" fill="#C4C4C4" cx="43.7793522" cy="30.305" rx="5.08299595" ry="5.115"></ellipse>
                    </g>
                    <g id="tea" transform="translate(557.000000, 294.000000)" fill-rule="nonzero">
                        <g id="Group">
                            <path d="M5.22222222,2.11764706 C2.5,2.11764706 0.277777778,4.23529412 0.277777778,6.82941176 C0.277777778,9.42352941 2.5,11.5411765 5.22222222,11.5411765 C7.94444444,11.5411765 10.1666667,9.42352941 10.1666667,6.82941176 C10.1666667,4.23529412 7.94444444,2.11764706 5.22222222,2.11764706 Z M5.22222222,8.84117647 C4.05555556,8.84117647 3.11111111,7.94117647 3.11111111,6.82941176 C3.11111111,5.71764706 4.05555556,4.81764706 5.22222222,4.81764706 C6.38888889,4.81764706 7.33333333,5.71764706 7.33333333,6.82941176 C7.33333333,7.94117647 6.38888889,8.84117647 5.22222222,8.84117647 Z" id="Shape" fill="#FFFFFF"></path>
                            <path d="M23.1666667,15.2470588 L12.0555556,15.2470588 C9.5,15.2470588 7.44444444,13.2882353 7.44444444,10.8529412 L7.44444444,0.794117647 L27.7777778,0.794117647 L27.7777778,10.8529412 C27.7777778,13.2882353 25.7222222,15.2470588 23.1666667,15.2470588 Z" id="Shape" fill="#FFFFFF"></path>
                            <g transform="translate(18.333333, 0.000000)" id="Shape">
                                <polygon fill="#1BB36C" points="4.61111111 10.9588235 0.0555555556 10.9588235 0.0555555556 7.25294118 1.22222222 5.77058824 3.44444444 5.77058824 4.61111111 7.25294118"></polygon>
                                <path d="M2.33333333,6.72352941 C2.27777778,6.72352941 2.22222222,6.67058824 2.22222222,6.61764706 L2.22222222,0.529411765 C2.22222222,0.476470588 2.27777778,0.423529412 2.33333333,0.423529412 C2.38888889,0.423529412 2.44444444,0.476470588 2.44444444,0.529411765 L2.44444444,6.61764706 C2.5,6.67058824 2.38888889,6.72352941 2.33333333,6.72352941 Z" fill="#97DAF8"></path>
                            </g>
                            <rect id="Rectangle-path" fill="#E3F4FC" x="0.611111111" y="14.8764706" width="34" height="1.11176471"></rect>
                            <rect id="Rectangle-path" fill="#FFFFFF" x="3.5" y="15.9882353" width="28.1666667" height="1.69411765"></rect>
                        </g>
                    </g>
                    <g id="lines" transform="translate(58.000000, 18.000000)" fill-rule="nonzero" fill="#96D5F6">
                        <g id="Group">
                            <g transform="translate(0.000000, 11.473862)" id="Shape">
                                <g transform="translate(333.992181, 166.097808)">
                                    <path d="M19.3191556,12.6758853 L1.910086,12.6758853 C0.873182174,12.6758853 0,11.8563238 0,10.763575 C0,9.72546374 0.818608288,8.85126476 1.910086,8.85126476 L19.3191556,8.85126476 C20.3560594,8.85126476 21.2292416,9.67082631 21.2292416,10.763575 C21.1746677,11.8563238 20.3560594,12.6758853 19.3191556,12.6758853 Z"></path>
                                    <path d="M10.5873339,21.4178752 C9.55043002,21.4178752 8.67724785,20.5983137 8.67724785,19.5055649 L8.67724785,2.0762226 C8.67724785,1.0381113 9.49585614,0.16391231 10.5873339,0.16391231 C11.6788116,0.16391231 12.4974199,0.983473862 12.4974199,2.0762226 L12.4974199,19.5055649 C12.4974199,20.5436762 11.6242377,21.4178752 10.5873339,21.4178752 Z"></path>
                                </g>
                                <g transform="translate(483.524629, 30.596965)">
                                    <path d="M14.7349492,9.28836425 L1.85551212,9.28836425 C1.09147772,9.28836425 0.436591087,8.68735245 0.436591087,7.86779089 C0.436591087,7.10286678 1.03690383,6.44721754 1.85551212,6.44721754 L14.7349492,6.44721754 C15.4989836,6.44721754 16.1538702,7.04822934 16.1538702,7.86779089 C16.0992963,8.68735245 15.4989836,9.28836425 14.7349492,9.28836425 Z"></path>
                                    <path d="M8.29523065,15.7355818 C7.53119625,15.7355818 6.87630962,15.13457 6.87630962,14.3150084 L6.87630962,1.42057336 C6.87630962,0.655649241 7.47662236,2.84217094e-14 8.29523065,2.84217094e-14 C9.11383894,2.84217094e-14 9.71415168,0.601011804 9.71415168,1.42057336 L9.71415168,14.3150084 C9.6595778,15.13457 9.05926505,15.7355818 8.29523065,15.7355818 Z"></path>
                                </g>
                                <g transform="translate(466.060985, 18.576728)">
                                    <path d="M9.93244722,6.3925801 L1.1460516,6.3925801 C0.600312744,6.3925801 0.218295543,5.95548061 0.218295543,5.46374368 C0.218295543,4.97200675 0.65488663,4.53490725 1.1460516,4.53490725 L9.93244722,4.53490725 C10.4781861,4.53490725 10.8602033,4.97200675 10.8602033,5.46374368 C10.8602033,5.95548061 10.4781861,6.3925801 9.93244722,6.3925801 Z"></path>
                                    <path d="M5.56653636,10.8182125 C5.0207975,10.8182125 4.6387803,10.381113 4.6387803,9.88937605 L4.6387803,1.09274874 C4.6387803,0.546374368 5.07537138,0.16391231 5.56653636,0.16391231 C6.05770133,0.16391231 6.49429242,0.601011804 6.49429242,1.09274874 L6.49429242,9.83473862 C6.49429242,10.381113 6.05770133,10.8182125 5.56653636,10.8182125 Z"></path>
                                </g>
                                <g transform="translate(652.157936, 224.559865)">
                                    <path d="M9.82329945,6.50185497 L1.09147772,6.50185497 C0.545738858,6.50185497 0.163721658,6.06475548 0.163721658,5.57301855 C0.163721658,5.02664418 0.600312744,4.64418212 1.09147772,4.64418212 L9.87787334,4.64418212 C10.4236122,4.64418212 10.8056294,5.08128162 10.8056294,5.57301855 C10.8056294,6.11939292 10.3690383,6.50185497 9.82329945,6.50185497 Z"></path>
                                    <path d="M5.45738858,10.9274874 C4.91164973,10.9274874 4.52963253,10.4903879 4.52963253,9.99865093 L4.52963253,1.20202361 C4.52963253,0.655649241 4.96622361,0.273187184 5.45738858,0.273187184 C6.00312744,0.273187184 6.38514464,0.710286678 6.38514464,1.20202361 L6.38514464,9.99865093 C6.38514464,10.4903879 6.00312744,10.9274874 5.45738858,10.9274874 Z"></path>
                                </g>
                                <g transform="translate(573.025801, 246.961214)">
                                    <path d="M9.98702111,6.66576728 L1.20062549,6.66576728 C0.65488663,6.66576728 0.272869429,6.22866779 0.272869429,5.73693086 C0.272869429,5.24519393 0.709460516,4.80809444 1.20062549,4.80809444 L9.98702111,4.80809444 C10.53276,4.80809444 10.9147772,5.24519393 10.9147772,5.73693086 C10.9147772,6.22866779 10.53276,6.66576728 9.98702111,6.66576728 Z"></path>
                                    <path d="M5.62111024,11.0367622 C5.07537138,11.0367622 4.69335418,10.5996627 4.69335418,10.1079258 L4.69335418,1.31129848 C4.69335418,0.764924115 5.12994527,0.382462057 5.62111024,0.382462057 C6.1668491,0.382462057 6.5488663,0.819561551 6.5488663,1.31129848 L6.5488663,10.1079258 C6.60344019,10.6543002 6.1668491,11.0367622 5.62111024,11.0367622 Z"></path>
                                </g>
                                <path d="M494.603127,164.021585 L491.164973,164.021585 L491.164973,160.579427 C491.164973,160.033052 490.728382,159.65059 490.237217,159.65059 C489.746052,159.65059 489.309461,160.08769 489.309461,160.579427 L489.309461,164.021585 L485.871306,164.021585 C485.325567,164.021585 484.94355,164.458685 484.94355,164.950422 C484.94355,165.496796 485.380141,165.879258 485.871306,165.879258 L489.309461,165.879258 L489.309461,169.321417 C489.309461,169.867791 489.746052,170.250253 490.237217,170.250253 C490.728382,170.250253 491.164973,169.813153 491.164973,169.321417 L491.164973,165.879258 L494.603127,165.879258 C495.148866,165.879258 495.530884,165.442159 495.530884,164.950422 C495.585457,164.458685 495.148866,164.021585 494.603127,164.021585 Z"></path>
                                <g transform="translate(326.351837, 133.315346)">
                                    <path d="M11.5150899,7.70387858 L1.20062549,7.70387858 C0.600312744,7.70387858 0.109147772,7.21214165 0.109147772,6.61112985 C0.109147772,6.01011804 0.600312744,5.51838111 1.20062549,5.51838111 L11.5150899,5.51838111 C12.1154027,5.51838111 12.6065676,6.01011804 12.6065676,6.61112985 C12.6611415,7.21214165 12.1699765,7.70387858 11.5150899,7.70387858 Z"></path>
                                    <path d="M6.38514464,12.8944351 C5.7848319,12.8944351 5.29366693,12.4026981 5.29366693,11.8016863 L5.29366693,1.47521079 C5.29366693,0.874198988 5.7848319,0.382462057 6.38514464,0.382462057 C6.98545739,0.382462057 7.47662236,0.874198988 7.47662236,1.47521079 L7.47662236,11.8016863 C7.47662236,12.4026981 6.98545739,12.8944351 6.38514464,12.8944351 Z"></path>
                                </g>
                            </g>
                            <g transform="translate(94.958561, 0.000000)" id="Rectangle-path">
                                <rect x="98.1784206" y="243.84688" width="14.7895231" height="2.45868465"></rect>
                                <rect x="126.12025" y="262.532884" width="14.7895231" height="2.45868465"></rect>
                                <rect x="133.542299" y="272.913997" width="7.42204848" height="2.45868465"></rect>
                                <rect x="443.631118" y="4.48026981" width="69.4725567" height="2.45868465"></rect>
                                <rect x="537.225332" y="278.213828" width="14.7895231" height="2.45868465"></rect>
                                <rect x="443.631118" y="14.4789207" width="42.1310399" height="2.45868465"></rect>
                                <rect x="553.979515" y="310.99629" width="48.9527756" height="2.45868465"></rect>
                                <rect x="561.401564" y="321.377403" width="41.5307271" height="2.45868465"></rect>
                                <rect x="0" y="0.819561551" width="14.7895231" height="2.45868465"></rect>
                                <rect x="68.8722439" y="0.491736931" width="48.9527756" height="2.45868465"></rect>
                                <rect x="76.2397185" y="10.8728499" width="41.5307271" height="2.45868465"></rect>
                                <rect x="245.855356" y="7.64924115" width="21.993276" height="3.66070826"></rect>
                                <rect x="287.495231" y="35.5143339" width="21.993276" height="3.66070826"></rect>
                                <rect x="298.519156" y="50.9767285" width="11.0239249" height="3.66070826"></rect>
                            </g>
                        </g>
                    </g>
                </g>
            </g>
        </g>
    </g>
</svg>