<?xml version="1.0" encoding="UTF-8" standalone="no"?>
<svg width="174px" height="240px" viewBox="0 0 174 240" version="1.1" xmlns="http://www.w3.org/2000/svg" xmlns:xlink="http://www.w3.org/1999/xlink">
    <!-- Generator: Sketch Beta 47 (45292) - http://www.bohemiancoding.com/sketch -->
    <title>Suitcase</title>
    <desc>Created with Sketch Beta.</desc>
    <defs>
        <filter x="-17.8%" y="-19.2%" width="140.2%" height="140.2%" filterUnits="objectBoundingBox" id="filter-1">
            <feOffset dx="5" dy="2" in="SourceAlpha" result="shadowOffsetOuter1"></feOffset>
            <feGaussianBlur stdDeviation="10.5" in="shadowOffsetOuter1" result="shadowBlurOuter1"></feGaussianBlur>
            <feColorMatrix values="0 0 0 0 0   0 0 0 0 0   0 0 0 0 0  0 0 0 0.5 0" type="matrix" in="shadowBlurOuter1" result="shadowMatrixOuter1"></feColorMatrix>
            <feMerge>
                <feMergeNode in="shadowMatrixOuter1"></feMergeNode>
                <feMergeNode in="SourceGraphic"></feMergeNode>
            </feMerge>
        </filter>
    </defs>
    <g id="Text-Styles" stroke="none" stroke-width="1" fill="none" fill-rule="evenodd">
        <g id="Luggage-landing" transform="translate(-347.000000, -1047.000000)" fill-rule="nonzero">
            <g id="Group-8" transform="translate(326.000000, 838.000000)">
                <g id="Group-7" transform="translate(0.000000, 85.000000)">
                    <g id="Group-2" transform="translate(0.000000, 118.000000)">
                        <g id="suitcase-(1)" filter="url(#filter-1)" transform="translate(0.000000, 9.000000)">
                            <g id="Suitcase" transform="translate(34.000000, 16.000000)">
                                <path d="M45.32288,55.20512 L45.32288,17.60882 C45.32288,14.33324 48.02852,11.6276 51.3041,11.6276 L94.45448,11.6276 C97.73006,11.6276 100.4357,14.33324 100.4357,17.60882 L100.4357,55.20512 L108.98018,55.20512 L108.98018,17.60882 C108.98018,9.63386 102.42944,3.08312 94.45448,3.08312 L51.3041,3.08312 C43.32914,3.08312 36.7784,9.63386 36.7784,17.60882 L36.7784,55.20512 L45.32288,55.20512 Z" id="Shape" fill="#D6D6D8"></path>
                                <path d="M124.64534,54.49322 L21.2552,54.49322 C15.27398,54.49322 10.28942,59.33498 10.28942,65.459 L10.28942,177.67838 C27.94832,190.35272 49.45232,197.90054 72.80768,197.90054 C96.16304,197.90054 117.80942,190.35272 135.32594,177.67838 L135.32594,65.459 C135.46874,59.3354 130.62656,54.49322 124.64534,54.49322 Z" id="Shape" fill="#EE4A68"></path>
                                <path d="M109.97726,96.78932 L35.9237,96.78932 C31.65146,96.78932 28.09112,100.34966 28.09112,104.6219 L28.09112,188.07464 C41.76254,194.34062 56.85818,197.90096 72.95048,197.90096 C89.04278,197.90096 104.13842,194.34062 117.80984,188.07464 L117.80984,104.6219 C117.80984,100.20686 114.2495,96.78932 109.97726,96.78932 Z" id="Shape" fill="#DD4062"></path>
                                <path d="M87.19142,0.23468 L58.70912,0.23468 C57.2849,0.23468 56.00348,1.37414 56.00348,2.94032 L56.00348,12.05474 C56.00348,13.47896 57.14294,14.76038 58.70912,14.76038 L87.19142,14.76038 C88.61564,14.76038 89.89706,13.62092 89.89706,12.05474 L89.89706,2.94074 C89.89706,1.37414 88.61564,0.23468 87.19142,0.23468 Z" id="Shape" fill="#F1F3F7"></path>
                                <rect id="Rectangle-path" fill="#BC2F54" x="28.09112" y="122.85032" width="89.71872" height="4.41462"></rect>
                                <path d="M28.2335,52.64186 C24.95792,54.20846 22.67942,57.7688 22.67942,61.47152 C22.67942,62.89574 22.96418,64.17716 23.6765,65.17424 C23.96126,65.60138 24.3884,65.88614 24.81596,65.88614 C25.10072,65.88614 25.38548,65.74376 25.52786,65.60138 C26.23976,65.17424 26.38214,64.31954 25.955,63.60764 C25.52786,62.89574 25.38548,62.04104 25.38548,61.47152 C25.38548,58.90826 27.09446,56.34458 29.37296,55.20554 C29.94248,54.92078 35.2118,52.78466 36.7784,51.92996 L36.7784,48.512 C35.069,49.79384 29.08778,52.3571 28.2335,52.64186 Z" id="Shape" fill="#FFFFFF"></path>
                                <path d="M34.49948,74.00348 L32.7905,62.04104 C32.7905,61.6139 32.50574,61.18676 32.0786,61.04396 L27.94874,58.33832 C27.5216,58.05356 27.09446,58.05356 26.6669,58.19594 L14.98922,61.75628 C14.70446,61.89866 14.4197,62.04104 14.13494,62.3258 L1.17542,82.69034 C0.74828,83.40224 0.89066,84.25694 1.60256,84.68408 L19.26146,95.93462 C19.97336,96.36176 20.82806,96.21938 21.2552,95.50748 L34.21472,75.14294 C34.3571,74.71538 34.49948,74.43062 34.49948,74.00348 Z M24.24602,68.73416 C22.67942,67.73708 22.1099,65.60096 23.10656,63.8924 C24.10364,62.3258 26.23976,61.75628 27.94832,62.75294 C29.51492,63.75002 30.08444,65.88614 29.08778,67.5947 C27.94874,69.3041 25.81262,69.73124 24.24602,68.73416 Z" id="Shape" fill="#FAD404"></path>
                                <rect id="Rectangle-path" fill="#E6BD20" transform="translate(17.069435, 79.880278) rotate(-147.657558) translate(-17.069435, -79.880278) " x="9.02253862" y="70.8364721" width="16.0937918" height="18.0876126"></rect>
                                <path d="M47.03144,43.81262 C46.46192,43.38548 45.89198,43.2431 45.32246,42.95834 L45.32246,46.09154 L45.32246,46.09154 C47.45858,47.51576 47.45858,51.0761 47.45858,52.4999 L47.45858,52.4999 C47.3162,54.35126 44.183,57.62684 43.04396,58.05398 C43.04396,58.05398 32.36336,64.0352 30.93914,64.46234 C29.23016,65.03186 26.95166,65.03186 25.95458,63.60806 C25.52744,62.89616 24.67274,62.75378 23.96084,63.18092 C23.24894,63.60806 23.10656,64.46276 23.5337,65.17466 C24.67316,67.02602 26.80928,67.73792 28.80302,67.73792 C29.8001,67.73792 30.93914,67.59554 31.79384,67.1684 C33.50282,66.59888 42.0473,61.32956 43.75628,60.76004 C45.1805,60.19052 49.87988,57.1997 50.16464,52.6427 L50.16464,52.6427 C50.4494,50.36336 50.30702,46.09112 47.03144,43.81262 Z" id="Shape" fill="#FFFFFF"></path>
                            </g>
                        </g>
                    </g>
                </g>
            </g>
        </g>
    </g>
</svg>